<?xml version="1.0" standalone="no"?>
<!DOCTYPE svg PUBLIC "-//W3C//DTD SVG 1.1//EN" "http://www.w3.org/Graphics/SVG/1.1/DTD/svg11.dtd" >
<svg xmlns="http://www.w3.org/2000/svg" xmlns:xlink="http://www.w3.org/1999/xlink" version="1.1">
<metadata></metadata>
<defs>
<font id="trashhandregular" horiz-adv-x="512" >
<font-face units-per-em="2048" ascent="1638" descent="-410" />
<missing-glyph horiz-adv-x="500" />
<glyph horiz-adv-x="0" />
<glyph unicode="&#xd;" />
<glyph unicode=" " />
<glyph unicode="!" horiz-adv-x="546" d="M508 1208q-12 -143 -105 -516q-80 -324 -73 -530q0 -18 -21.5 -33.5t-40.5 -11.5q-104 20 -110 102q-2 43 -2 86q0 193 61 471q94 412 102 467q4 25 31 35t51 2l70 -20q39 -17 37 -52zM309 -41q4 -29 -8 -56.5t-29.5 -28.5t-25.5 -9t-17 -6q-109 41 -123 106 q-6 29 39 58.5t64 27.5q33 -4 64.5 -28.5t35.5 -63.5z" />
<glyph unicode="&#x22;" horiz-adv-x="849" d="M741 1327q10 -39 11 -78q0 -74 -41 -182q-61 -160 -70 -190q-49 -180 -141 -181q-16 0 -33 6q-43 14 -31 72q12 57 84 270q53 166 64 283q4 45 82 37q35 -4 47 -8q22 -9 28 -29zM395 1327q10 -39 11 -78q0 -72 -44 -182q-61 -158 -69 -190q-49 -180 -139 -181 q-16 0 -33 6q-43 14 -31 72q12 57 84 270q53 166 64 283q4 45 81 37q35 -4 48 -8q22 -9 28 -29z" />
<glyph unicode="#" />
<glyph unicode="$" />
<glyph unicode="%" />
<glyph unicode="&#x26;" horiz-adv-x="894" d="M971 725q-12 -55 -90 -84q-109 -39 -127 -53q6 -84 -37 -197q-68 -180 -70 -184q102 -78 244 -209q14 -10 12 -37q0 -27 -12 -43q-25 -10 -53 -10q-66 0 -125 45q-43 37 -138 106q-6 -8 -104 -157q-63 -98 -129 -148q-27 -20 -68 -20q-45 0 -90 20q-72 31 -71 160 q0 37 6 84q12 88 45 215q27 106 55 213q-154 229 -153 475q0 76 16 150q20 88 76 153q61 74 143 90q84 16 141 -88q43 -78 43 -186q0 -51 -12 -148q-8 -61 -41 -210q-29 -137 -35 -211q-2 -31 39 -64q33 -25 68 -49q63 68 86 209q4 27 -35 31q-45 6 -51 30q-2 8 -2 17 q0 55 57 80q78 27 156 53q92 31 153 30q31 0 62 -8q14 -12 29.5 -25.5t11.5 -29.5zM301 1079q-2 4 -6 6q-23 0 -39 -71q-12 -53 -12 -113q0 -102 37 -211q2 39 20 144q16 90 16 141q0 57 -16 104zM424 141q14 18 14 35q0 23 -32 47q-43 31 -50 39q-29 -63 -55 -127 q-31 -76 -31 -127q0 -43 21 -76q8 -12 16 -12q23 0 60 88q53 125 57 133z" />
<glyph unicode="'" horiz-adv-x="483" d="M395 1327q10 -39 11 -78q0 -72 -44 -182q-61 -158 -69 -190q-49 -180 -139 -181q-16 0 -33 6q-43 14 -31 72q12 57 84 270q53 166 64 283q4 45 81 37q35 -4 48 -8q22 -9 28 -29z" />
<glyph unicode="(" horiz-adv-x="675" d="M604 1272q-281 -539 -330 -873q-18 -133 -18 -235q0 -274 135 -406q14 -14 70 -28q43 -14 51 -41q14 -45 -29 -51q-20 -2 -39 -3q-109 0 -190 82q-166 166 -166 465q0 199 80 492q10 39 117 319q35 92 69 187q47 102 119 143q16 10 43 10q35 0 63.5 -14t28.5 -33 q0 -8 -4 -14z" />
<glyph unicode=")" horiz-adv-x="655" d="M522 279q-41 -350 -350 -666q-12 -12 -35 -12q-43 0 -98 39q-12 8 -14 26q-4 20 6 33q344 362 342 862q0 414 -201 737q-4 6 -4 13q0 27 30.5 47t57.5 20q31 0 53 -22q238 -233 238 -719q0 -151 -25 -358z" />
<glyph unicode="*" />
<glyph unicode="+" />
<glyph unicode="," horiz-adv-x="503" d="M389 217q-59 -287 -65 -309q-41 -174 -99 -295q-12 -25 -49 -25t-79 20.5t-42 67.5q0 29 17 76q14 35 26 70q53 190 66 235q33 137 43 242q4 49 39 61q18 8 39 9q51 0 94 -33q30 -21 10 -119z" />
<glyph unicode="-" horiz-adv-x="937" d="M870 543q-4 -25 -8 -51.5t-20 -28.5q-57 2 -172 -4q-78 -6 -234 -25q-59 -2 -317 -51q-18 -4 -35 14q-39 47 -10 127q4 10 6 21q4 4 14 6q145 29 293 57q115 18 297 19q18 0 52 5t50 5q43 0 69.5 -20.5t14.5 -73.5z" />
<glyph unicode="." horiz-adv-x="540" d="M414 180q18 -74 -7.5 -99.5t-74.5 -21.5q-41 2 -78 37t-37 74q0 25 20.5 46.5t43.5 19.5q39 -2 77 -7q46 -10 56 -49z" />
<glyph unicode="/" horiz-adv-x="890" d="M1047 1333q4 -39 -15 -61q-383 -496 -639 -862q-76 -123 -229 -357q-49 -90 -158 -272q-12 -18 -33 -19q-12 0 -35.5 8.5t-31.5 10.5q-23 2 -43.5 20.5t-18.5 34.5q6 68 54 148q45 68 88 137q152 272 438 653q233 313 467 625q14 20 45 20q103 0 111 -86z" />
<glyph unicode="0" horiz-adv-x="661" d="M657 633q6 -41 7 -82q0 -229 -158 -410q-127 -145 -250 -137q-96 6 -162 86q-92 115 -92 299q0 174 76 371q49 125 106 172q86 70 195 69q76 0 127 -43q63 -55 96 -112q29 -49 38 -104.5t17 -108.5zM467 752q-14 55 -53 79q-29 16 -43 17q-16 0 -39 -23 q-156 -162 -156 -407q0 -145 70 -252q10 -16 24 -16q18 0 72 57q158 170 158 344q0 51 -12.5 101.5t-20.5 99.5z" />
<glyph unicode="1" horiz-adv-x="425" d="M332 911q4 -143 -13 -405q-16 -285 -16 -406q0 -84 4 -157q4 -51 -37 -52q-125 0 -137 56q-27 119 -27 268q0 104 18.5 316t18.5 315q0 131 -20 237q-2 14 11 33t30 25q84 29 124 -29t44 -201z" />
<glyph unicode="2" horiz-adv-x="712" d="M653 -23q-16 -37 -96 -47q-68 -8 -164 -8q-125 2 -157 0q-61 -4 -76 -4q-123 0 -158 88q49 119 168 334q121 223 168 332q29 63 59 129q33 80 33 131q0 86 -43 86q-25 0 -58.5 -56.5t-62.5 -107.5q-4 -8 -4 -18t11.5 -39t11.5 -45q0 -20 -16.5 -38t-39.5 -18 q-29 0 -110 78q-27 25 -27 66q0 49 37 116q90 166 270 213q23 6 43 7q94 0 123 -86q18 -59 19 -125q0 -100 -49 -234q-49 -111 -97 -221q-27 -61 -104 -201q-70 -121 -98 -205q33 -2 184 -2q113 0 182 -18q57 -16 57 -80q0 -15 -6 -27z" />
<glyph unicode="3" horiz-adv-x="690" d="M588 1114q2 -16 2 -31q0 -96 -105 -215q-154 -178 -168 -200q63 -10 129 -21q78 -20 115 -76q82 -123 82 -239q0 -88 -47 -199q-10 -23 -102 -207q-70 -139 -248 -336q-68 -76 -127 -75q-18 0 -37 10q-25 12 -49.5 27.5t-26.5 37.5q-4 61 70 107q106 66 123 86 q147 180 192 264q74 139 74 301q0 41 -4 86q-6 70 -66 76q-59 6 -243 -41q-10 16 -62 53q-39 29 -39 53q0 20 19 46q104 127 299 391q-35 4 -101 -13q-76 -18 -104 -18q-61 0 -101 47q-12 14 -14 41v45q18 4 264 62q74 16 136 16q127 0 139 -78z" />
<glyph unicode="4" horiz-adv-x="768" d="M766 143q-12 -29 -55 -32q-33 0 -68 -2q-45 -2 -51 -31q-18 -98 -23 -266q-4 -227 -6 -266.5t-51 -47.5q-78 0 -92 41q-18 53 -19 117q0 47 14.5 143.5t14.5 147.5q0 49 -10 94q-18 2 -39 2q-43 0 -131 -18.5t-129 -18.5q-39 0 -74 12q-47 18 -47 52q0 16 45 98 q74 135 201 420.5t205 427.5q20 49 45.5 100t83.5 51q70 0 73.5 -47t3.5 -92q0 -119 -31.5 -341t-31.5 -339q0 -51 4 -98q129 0 162 -51q18 -29 6 -56zM430 575q-51 -94 -100 -190q-55 -111 -78 -197q35 2 88 19q66 20 80 22q0 57 5 177t5 169z" />
<glyph unicode="5" horiz-adv-x="702" d="M741 1071q-68 -57 -211 -90q-168 -41 -225 -72q-76 -197 -92 -325q305 -90 336 -273q14 -90 14 -180q0 -369 -217 -608q-37 -41 -72 -41q-16 0 -30 10q-29 14 -56 27q-33 20 -36 55q-6 53 36 74q66 33 91 73q121 190 120 414q0 127 -49 225q-25 49 -100 56 q-111 8 -123 12q-88 33 -86 80q6 229 172 641q12 31 59 31q66 0 78 -47q20 -10 47 -11q37 0 117 28t121 28q53 0 92 -35q22 -33 14 -72z" />
<glyph unicode="6" horiz-adv-x="653" d="M694 1335q12 -10 13 -30q0 -41 -29 -52q-70 -23 -127 -79q-178 -178 -305 -570q27 0 75 24.5t76 24.5q18 0 37 -8q152 -61 178 -203q6 -31 6 -63q0 -115 -79 -223q-68 -94 -177 -162q-31 -18 -63 -19q-41 0 -129 50q-137 78 -137 284q0 72 16 152q61 285 168 477 q129 231 143 254q94 137 211 188q18 8 33 9q29 -1 90 -54zM451 401q0 31 -17.5 67t-44.5 36q-16 0 -55 -23.5t-60 -23.5q-25 0 -43 24q-37 -45 -36 -127q0 -43 12 -116q16 -102 49 -103q10 0 20 6q72 35 123.5 108.5t51.5 151.5z" />
<glyph unicode="7" horiz-adv-x="751" d="M774 403q4 -10 4 -20q0 -29 -65 -72q-39 -25 -103 -35q-74 -12 -94 -20q-16 -70 -41 -311q-20 -193 -61 -297q-61 -25 -107 20q-16 68 -16 152t18 211q16 106 33 211q-16 2 -33 2q-39 0 -98 -17q-84 -25 -96 -26q-10 16 -52.5 47t-42.5 49q0 16 23 35q55 45 160 61 q129 18 159 31q12 70 31 258q14 164 37 254q-23 4 -49 4q-53 0 -127 -22q-66 -25 -129 -48q-4 6 -55 50q-37 29 -37 57q0 12 6 27q57 39 156 59q145 31 163.5 35t87.5 24q59 16 95 17q57 0 82 -45q-6 -84 -52 -330q-41 -207 -34 -336q25 -4 81 10.5t78 14.5q53 -1 78 -50z " />
<glyph unicode="8" horiz-adv-x="737" d="M723 1184q0 -55 -35 -133q-35 -63 -67 -129q-63 -129 -107 -199q51 -127 96 -334q20 -96 21 -133q0 -53 -21 -100q0 -2 -26 -76q-14 -41 -35 -62q-45 -45 -168 -112q-49 -27 -109 -27q-66 0 -125 33q-106 59 -110 172q-2 92 47 203q47 90 94 182q12 27 96 143 q61 84 66 148q4 68 -23 190q-31 137 -32 195q-2 86 45 141q27 31 59 31q10 0 36 -5t40 -5q33 0 63 20q23 16 56 16q63 0 101 -50t38 -109zM510 1098q-20 43 -49 43q-18 0 -25 -19q-8 -31 0 -86q8 -59 31 -75q6 12 35 61q16 27 16 45q0 15 -8 31zM457 180q23 39 22 88 q0 35 -14 88q-10 45 -23 88q-6 29 -34 91q-70 -98 -138 -199q-84 -123 -84 -203q0 -55 37 -104q16 -23 43 -23q43 0 103 62q51 49 88 112z" />
<glyph unicode="9" horiz-adv-x="712" d="M668 598q14 -373 -230 -807q-49 -88 -100 -111.5t-105 -23.5q-72 0 -131 39q-66 43 -55 82q4 18 29 18q10 0 33.5 -5t33.5 -5q90 -4 156 96q39 57 84 185q61 174 76 221q37 129 37 237q0 47 -7 94q-49 -49 -61 -96q-20 -2 -65.5 -28.5t-75.5 -26.5q-135 4 -195 80 q-53 66 -53 155q0 117 94 273q102 170 250 170q20 0 41 -4q31 -20 64.5 -41t68.5 -21q12 0 25 2q66 -82 80 -229q2 -127 6 -254zM463 948q2 8 0 21q-4 16 -4 20q-8 -6 -21 -6q-10 0 -28.5 7t-26.5 7q-16 0 -21 -28q-66 -37 -143 -207q-12 -27 -12 -66q0 -55 22 -92 q49 12 107 70q123 151 127 274z" />
<glyph unicode=":" horiz-adv-x="413" d="M322 713q18 -72 -8.5 -98.5t-71.5 -22.5q-41 2 -78 37t-37 73q0 25 20.5 47.5t42.5 20.5q72 -6 78 -6q44 -12 54 -51zM297 190q18 -72 -8.5 -98t-71.5 -22q-41 2 -78 36.5t-37 73.5q0 25 20.5 46.5t43.5 19.5l78 -6q43 -11 53 -50z" />
<glyph unicode=";" horiz-adv-x="618" d="M432 715q18 -74 -8.5 -100.5t-73.5 -22.5q-41 2 -76.5 38t-35.5 72q0 25 20.5 47.5t40.5 20.5q39 -2 78 -6q45 -10 55 -49zM537 254q0 -31 -23 -82q-29 -68 -31 -76q-82 -285 -176 -467q-16 -31 -51 -30q-16 0 -31 10q-25 10 -51.5 23.5t-23.5 31.5q14 121 86 316 q82 219 100 309q8 35 61 41q66 6 103 -14.5t37 -61.5z" />
<glyph unicode="&#x3c;" horiz-adv-x="628" d="M561 930q10 -86 -20 -119q-170 -188 -332 -295q25 -45 197 -221q147 -152 147 -211q0 -23 -24.5 -44.5t-53.5 -23.5q-53 -4 -96 43q-33 41 -66 84q-76 86 -153 170q-82 98 -121 183q-6 12 -6 28q0 55 43 94q293 268 407 330q27 14 45 15q29 0 33 -33z" />
<glyph unicode="=" horiz-adv-x="937" d="M870 717q-4 -25 -8 -51.5t-20 -28.5q-57 2 -172 -4q-78 -6 -234 -25q-59 -2 -317 -51q-18 -4 -35 14q-39 47 -10 127q4 10 6 21q4 4 14 6q145 29 293 57q115 18 297 19q18 0 52 5t50 5q43 0 69.5 -20.5t14.5 -73.5zM870 328q-4 -25 -8 -51.5t-20 -28.5q-57 0 -172 -6 q-78 -6 -234 -25q-86 -14 -157 -20q-53 -4 -160 -29q-18 -4 -35 14q-37 45 -10 125q4 10 6 21q4 4 14 6q145 29 293 57q117 20 297 21q18 0 52 5t50 5q43 0 69.5 -20.5t14.5 -73.5z" />
<glyph unicode="&#x3e;" horiz-adv-x="628" d="M561 496q-39 -84 -121 -183q-76 -84 -151 -170q-33 -43 -66 -84q-45 -47 -98 -43q-29 2 -53.5 23.5t-24.5 44.5q0 59 148 211q174 174 198 221q-162 106 -332 295q-33 35 -22 119q4 33 33 33q20 0 47 -15q111 -59 405 -330q43 -39 43 -94q0 -16 -6 -28z" />
<glyph unicode="?" horiz-adv-x="720" d="M655 1051q14 -57 15 -113q0 -156 -117 -344q-104 -158 -207 -315q-25 -51 -49 -103q-33 -57 -84 -63q-104 -12 -100 34q14 158 189 422.5t196 415.5q4 31 -12.5 56.5t-47.5 25.5q-27 0 -67 -41q-29 -39 -92 -117q-14 -18 -37 -114q-14 -66 -80 -60q-86 8 -96 82 q-2 16 -3 33q0 96 78 188q43 51 154 140q68 53 131 51q80 -4 145.5 -51t83.5 -127zM244 -113q10 -16 10 -32q0 -31 -33 -59.5t-63 -28.5q-68 0 -103 86q-23 55 11 81q25 18 96 5q59 -13 82 -52z" />
<glyph unicode="@" horiz-adv-x="1042" d="M942 293q-49 -274 -178 -416q-68 -76 -141 -76q-66 0 -118 48.5t-75 113.5q-43 -47 -84 -94q-53 -51 -104 -51q-16 0 -35 4q-78 23 -92 28q-51 25 -56 72q-12 125 70 273q53 92 178 241q88 106 170 107q37 0 70 -25q23 -12 45 -24.5t20 -42.5q-2 -37 -18 -175 q-16 -129 -16 -192q0 -98 34 -115q45 -23 121 160q74 174 82 307q4 51 4 94q0 166 -55 281q-61 131 -158 137q-47 4 -93 -17.5t-88 -40t-122 -108.5q-70 -80 -115 -80q-57 0 -57 39q0 27 29 66q213 297 411 297q145 0 285 -180q111 -141 111 -383q0 -113 -25 -248zM434 289 v20q-35 8 -116.5 -86t-81.5 -162q0 -51 34 -51q49 0 110.5 100.5t53.5 178.5z" />
<glyph unicode="A" horiz-adv-x="811" d="M795 98q12 -33 12 -57q0 -41 -35 -71.5t-47 -28.5q-100 18 -127 161q-29 156 -68 260q-70 -6 -139 -12q-80 -10 -125 -49q-23 -63 -59 -225q-35 -150 -68 -228q-16 -37 -69 -20q-68 23 -72 61q-6 78 45 209q61 150 68 213q2 18 -27 41t-29 35q0 10 9.5 21.5t43 18.5 t37.5 22q37 102 117 380q68 242 121 371q12 29 51 29q29 0 51 -19q57 -49 74 -147q12 -84 23 -168q102 -484 213 -797zM496 489q-6 76 -27 170q-20 82 -39 164q-61 -170 -106 -340q33 6 172 6z" />
<glyph unicode="B" horiz-adv-x="786" d="M760 891q-27 -111 -135 -201q-104 -74 -209 -145q6 -31 42 -46.5t68 -29.5q170 -111 170 -262q0 -117 -80 -215q-61 -76 -182 -150l-196 -114q-25 -14 -54 -15q-68 0 -94 56q4 172 8 342q4 205 23 338q-43 29 -43 65q0 18 15.5 33.5t41.5 34.5q25 311 10 573 q-96 18 -127 86q-2 8 7.5 24.5t9.5 26.5q47 35 104 35q41 0 189 -27q76 -12 157 -55q221 -115 260 -223q27 -78 15 -131zM567 993q-10 76 -123 117q-16 6 -51 27q-25 16 -41 16q-8 0 -18 -4q-2 -35 -2 -74q0 -53 8 -180q6 -117 4 -182q14 0 43 21.5t33 23.5q61 29 108 96 t39 139zM506 190q4 23 4 43q0 61 -39 109q-104 51 -133 51q-16 0 -31 -6q2 -20 2 -45q0 -43 -11 -132t-11 -134q0 -66 16 -119q25 29 77 60.5t73 56.5q37 42 53 116z" />
<glyph unicode="C" horiz-adv-x="530" d="M618 1235q0 -55 -73 -70q-96 -18 -119 -43q-229 -242 -229 -624q0 -180 57 -340q47 -131 68 -172q51 -100 124 -144q31 -14 62 -26q33 -18 33 -52q0 -33 -21.5 -59.5t-46.5 -19.5q-27 4 -82 26q-98 57 -213 244q-29 47 -58.5 97t-43.5 95q-10 33 -35 265q-8 72 -8 139 q0 362 211 616q123 147 256 148q57 0 104 -35q14 -10 14 -45z" />
<glyph unicode="D" horiz-adv-x="716" d="M651 453q-20 -47 -39 -95q-25 -55 -53 -88q-63 -80 -127 -157q-76 -94 -137 -131q-20 -25 -45 -51.5t-49 -26.5q-12 0 -28.5 6t-36 14t-27.5 27q-6 86 -7 184q0 100 8.5 299t8.5 299q0 133 -10 244q-2 2 -46 47q-27 27 -26 49q0 10 4 21q10 25 45 28q27 4 53 6 q172 -37 361 -192q49 -41 80 -86q98 -145 98 -272q0 -66 -27 -125zM504 672q-18 129 -219 227q-14 -342 -9 -725q231 231 232 440q0 29 -4 58z" />
<glyph unicode="E" horiz-adv-x="749" d="M762 1024q-76 -31 -223.5 -72t-223.5 -71q-18 -53 -26 -238q33 -12 76 -12q31 0 96 10t96 10q57 0 98 -24q29 -41 29 -54q0 -14 -14 -22q-4 -2 -29 -29q-16 -18 -41 -16q-43 -10 -158 -12q-96 -2 -153 -25q-39 -152 -39 -240q0 -59 16 -94q96 -68 334 -57q16 0 34.5 15.5 t31.5 15.5q57 12 75 -86q6 -33 -11 -61t-50 -30q-248 -8 -430 39q-57 14 -104.5 63.5t-53.5 110.5q-18 178 0 320q-57 39 -51 76q2 18 31.5 33.5t34 32t16.5 194.5q-115 23 -113 86q2 59 72 94q66 27 131 53q76 39 190 70q100 27 201 51q10 2 25 2q55 0 129 -43 q2 -8 10 -30.5t8 -32.5q0 -17 -14 -27z" />
<glyph unicode="F" horiz-adv-x="782" d="M967 1300q0 -41 -26 -74.5t-67 -41.5q-16 -4 -44.5 9t-45.5 11q-90 -8 -221 -63q-166 -70 -217 -84q-8 -129 -8 -262t8 -267q16 -4 35 -4q41 0 147 33q100 29 154 23q45 -4 41 -35q-12 -80 -102 -123q-84 -27 -168 -55q-33 -4 -107 -21q-4 -41 -4 -92q0 -49 5 -149.5 t5 -149.5q0 -176 -55 -279q-12 -23 -37 -22q-25 0 -51.5 22.5t-34.5 49.5q-20 63 -20 147q0 29 14 199q10 123 -4 198q-4 27 -41 43q-47 20 -60 33q-6 14 5 82q25 -4 42 16.5t33 20.5q8 0 17 -2q20 100 20 225q0 43 -16 318q-39 10 -77 48t-38 74q0 51 74 62q100 14 371 102 q238 78 380 80q37 0 65 -19.5t28 -52.5z" />
<glyph unicode="G" horiz-adv-x="876" d="M797 512q-55 -137 -72 -338q-10 -174 -18 -348q-4 -51 -68 -51q-18 0 -35 6q-88 37 -88 137q0 29 8 87t8 85q8 59 21 178q-141 -133 -320 -198q-25 -8 -49 -9q-94 0 -174 107q-45 59 -45 147q0 78 35 183q109 332 346 649q119 158 211 158q82 0 92 -62q8 -51 -35 -74 q-72 -39 -75 -43q-172 -190 -316 -491q-88 -186 -88 -334q0 -27 2 -53q4 -2 12.5 -19.5t22.5 -11.5q135 53 408 281q20 16 47 94q20 57 73 57q-16 0 33 4q25 4 33 -8q39 -57 39 -94q0 -19 -8 -39z" />
<glyph unicode="H" horiz-adv-x="831" d="M758 1145q-4 -182 -60 -578q-51 -375 -51 -575q0 -63 4 -121q0 -14 -12 -27.5t-29 -13.5q-57 0 -75 10q-78 45 -78 170q0 25 3 77t3 77q0 41 10 125t10 129q-29 -2 -79 8t-72 10q-27 0 -51 -8q-49 -162 -58 -477q-70 -29 -135 6q-47 25 -47 98q0 16 3 44t3 34 q6 111 47 438q35 274 33 437q0 23 31.5 28.5t36.5 12.5q12 -14 59 -25q39 -8 47 -37q16 -51 16 -115q0 -45 -13 -142t-13 -148q25 -18 61 -23q25 -4 70 -2q59 4 72 4q51 215 90 557q8 72 51 72q109 10 123 -45z" />
<glyph unicode="I" horiz-adv-x="348" d="M291 1036q4 -59 4 -123q0 -139 -28.5 -419.5t-28.5 -423.5q0 -53 2 -105q-18 -57 -80 -55q-88 4 -96.5 75.5t-8.5 151.5q0 139 34 415.5t34 414.5q0 53 -4 104q20 39 69 39q39 0 78 -23q8 6 13 7q6 0 6 -21q-2 -25 0 -29q2 -6 6 -8z" />
<glyph unicode="J" horiz-adv-x="473" d="M379 543q-35 -627 -367 -793q-23 -10 -55 -10q-55 0 -96 27q-59 41 -60 81q0 45 52 46q10 0 32.5 -6.5t32.5 -6.5q31 0 53 27q238 262 238 764q0 127 -14 303q-6 66 -25 199q-4 23 12.5 41t42.5 14q25 2 72 -6q49 -29 61 -103q6 -66 11 -131q22 -213 10 -446z" />
<glyph unicode="K" horiz-adv-x="768" d="M762 113q12 -10 12 -29q0 -12 -16 -61q-8 2 -15 2q-12 0 -31.5 -10.5t-29.5 -10.5t-23 8q-137 86 -426 258q6 -76 11 -217q0 -16 4 -49t4 -47q0 -49 -43 -68q-12 -8 -35 -8q-25 0 -31 15q-53 18 -61 71q-25 147 -25 346q0 72 4.5 214.5t4.5 213.5q0 217 -29 377 q-4 25 29 33q25 4 51 8q27 -8 55.5 -19.5t30.5 -35.5q31 -279 26 -442q84 76 193 200q92 104 182 211q25 10 53 10q80 0 84 -55q-57 -127 -225 -301q-197 -203 -252 -289q127 -76 256 -151q144 -90 242 -174z" />
<glyph unicode="L" horiz-adv-x="649" d="M649 238q-4 -2 -239 -170q-137 -98 -244 -146q-12 -6 -25 -6q-29 0 -53 37q-37 49 -39 51q-4 180 23 502q31 342 30 493q0 104 -8 197q27 27 68 27q78 0 90 -58q6 -168 -14.5 -502.5t-16.5 -502.5q57 25 150 86q100 70 145 92q10 0 36 4t38 4q41 0 59 -33q25 -44 0 -75z " />
<glyph unicode="M" horiz-adv-x="1110" d="M1065 -35q8 -41 -59 -45q-45 -2 -93 39q-39 35 -61 113q-20 72 -25 202q-4 147 -14 203q-27 -92 -88 -274q-37 -100 -45 -115q-33 -63 -82 -57q-98 23 -152 110q-35 57 -65 183q-33 137 -55 184q-88 -428 -189 -639q-14 -31 -86 4q-59 29 -59 82q0 18 43 131 q18 49 143 473q43 147 90 518q4 4 21 43q10 29 37 29q70 0 96 -27q0 -59 19.5 -191t19.5 -200q18 -115 35 -231q23 -131 82 -215q197 547 249 864q8 33 62 33q76 0 86 -49q14 -74 14 -170q0 -31 -4 -136q-2 -84 0 -137q19 -432 80 -725z" />
<glyph unicode="N" horiz-adv-x="972" d="M926 1241q-29 -274 -56 -551q-35 -328 -34 -547q0 -72 4 -141q2 -33 -23.5 -57.5t-58.5 -24.5q-63 0 -107 86q-131 256 -325 803q-4 12 -11 12q-14 0 -18 -28q-35 -293 -35 -617q0 -156 8 -317q2 -59 -34 -82q-14 -14 -31 -15q-14 0 -37 13q-31 14 -39 18q-27 8 -33 49 q-2 33 -4 68q-6 115 -6 240q0 217 25 542q39 496 43 549q2 45 75 45q35 4 103 -51q66 -125 162 -406q92 -268 168 -407q31 272 96 823q6 41 59 41q18 0 43 -6q33 -8 39 -10q21 -9 27 -29z" />
<glyph unicode="O" horiz-adv-x="786" d="M754 442q-121 -272 -342 -323q-27 -6 -54 -6q-117 0 -235 127q-80 86 -80 223q0 152 90 325q39 74 94 127q63 63 121 64q33 0 61.5 -24.5t153.5 -65.5q98 -33 139 -111q72 -137 72 -235q0 -56 -20 -101zM590 569q-14 150 -80 179q-10 4 -18 4q-25 0 -62 -41 q-41 -47 -63 -56q-14 -6 -41 12.5t-35 18.5q-6 0 -10 -4q-72 -61 -72 -190q0 -88 41 -150q57 -84 96 -84q90 0 174 113q80 106 70 198z" />
<glyph unicode="P" horiz-adv-x="714" d="M641 709q-78 -168 -133 -224l-94 -94q-59 -47 -119 -57q-8 -41 -8 -96q0 -39 6 -118t6 -116q0 -139 -66 -209l-57 31q-35 18 -39 45q-20 133 -20 297q0 109 12 324t12 325q0 160 -18 293q-16 -6 -30.5 20.5t-24.5 30.5q10 66 34 66q31 10 127 -4q266 -43 402 -234 q43 -61 43 -139q0 -67 -33 -141zM508 866q10 82 -70 129q-4 0 -147 60q23 -377 14 -529q183 172 203 340z" />
<glyph unicode="Q" horiz-adv-x="813" d="M877 -168q6 -12 6 -25q0 -27 -27 -46t-53 -19q-35 0 -70 37q-27 31 -55 63q-45 43 -92 117q-41 63 -80 127l-94 -74q-57 -39 -111 -39q-66 0 -132.5 48.5t-94.5 111.5q-47 104 -47 238q0 205 118 514q33 86 62 123q45 61 121 79q18 4 82 31q53 23 82 23q23 0 38 -8 q29 -12 82 -56q72 -92 95 -250q12 -94 8 -274q-2 -57 -52.5 -159.5t-50.5 -160.5q2 -90 111 -208q134 -148 154 -193zM516 453q49 104 49 245q0 156 -53 293q-18 6 -64.5 -17.5t-93.5 -49.5q-74 -37 -102 -156q-16 -102 -35 -205q-27 -121 -27 -211q0 -137 62 -225 q6 -10 20 -10q31 0 56 37q2 4 49 51q31 31 31 61q0 20 -13 43q-70 139 -71 146q-35 88 -31 155q4 45 61 49q53 4 97 -38q23 -23 36 -84t29 -84z" />
<glyph unicode="R" horiz-adv-x="729" d="M893 -14q6 -8 6 -19q0 -47 -98 -71q-109 84 -271 258q-180 195 -268 270q-6 -53 -22 -279q-10 -170 -37 -270q-4 0 -25.5 -10t-36.5 -6q-90 20 -90 125q0 31 8 82q8 59 11 73q8 119 10 283v223q0 279 31 469q20 127 239 117q111 -4 193 -111q76 -98 75 -213 q0 -96 -71 -192q-61 -86 -152 -135q-37 -20 -37 -45q0 -27 43 -64q33 -27 66 -53q2 -2 225 -205q142 -127 201 -227zM461 905q6 37 4 66q-6 43 -36 77.5t-95 34.5q-49 0 -62 -30q-10 -51 -10 -117q0 -27 6 -137q4 -84 0 -137q170 126 193 243z" />
<glyph unicode="S" horiz-adv-x="567" d="M494 1239q0 -41 -60 -72q-16 -8 -35 -2q-29 8 -30 9q-12 0 -25 -13q-111 -111 -111 -270q0 -59 19 -111q8 -23 156 -317q98 -197 98 -334q0 -113 -55 -217q-18 -35 -93 -90q-59 -43 -106 -43q-18 0 -35 6q-61 27 -61 68q0 25 30 59q8 10 39 12t41 25q43 90 43 184 q0 133 -132 386t-132 405q0 125 49 223q55 113 158 162q47 23 92 22q86 0 129 -47q21 -22 21 -45z" />
<glyph unicode="T" horiz-adv-x="757" d="M1090 1276q-18 -74 -70 -86q-133 -33 -463 -86q-41 -510 -41 -850q0 -129 4 -254q2 -39 -4 -59q-10 -33 -41 -31q-59 2 -98 50t-43 108q-4 76 -4 159q0 135 18 428q18 281 17 428q-55 4 -154 -10q-113 -16 -156 -16q-100 0 -164 53q-25 53 -24 55q0 14 14 31 q66 23 269 41q178 18 266 66q72 -23 164 -23t176 23q25 2 125 28q74 18 123 12q37 0 30 -30q56 0 56 -37z" />
<glyph unicode="U" horiz-adv-x="796" d="M795 1116q-14 -143 -82 -383q-92 -322 -107 -389q-45 -207 -172 -377q-80 -109 -184 -106q-92 2 -137 116q-78 193 -78 453q0 150 28 385q-2 -20 -2 127q0 127 99 127q20 0 43.5 -11t46.5 -24q2 -104 -6 -307q-10 -217 -11 -313q0 -102 7 -187q4 -43 36 -164 q86 96 136 256q16 53 65 291q39 180 88 283q14 29 24.5 108.5t24.5 110.5q23 49 78 49q72 0 103 -45z" />
<glyph unicode="V" horiz-adv-x="948" d="M967 1176q-80 -150 -228 -560q-43 -121 -102 -399q-57 -266 -111 -403q-18 -20 -43 -21q-29 0 -73 31q-80 190 -187 627q-100 416 -200 632q27 51 45 52q16 10 32 10q33 0 115 -62q74 -168 141 -411q53 -211 109 -420q76 250 151 502q90 283 185 487q31 53 106 35 q8 -2 20.5 -15.5t31 -14.5t18.5 -29q0 -21 -10 -41z" />
<glyph unicode="W" horiz-adv-x="1021" d="M944 1055q47 -23 47 -66q0 -29 -24 -78q-31 -66 -33 -73q-49 -152 -93 -461t-89 -455q-12 -41 -70 -41q-27 0 -47 10q-76 39 -109 152q-2 10 -39 205q-18 102 -34 219q-29 -57 -76 -285q-41 -197 -96 -250q-16 -16 -58 -4q-61 8 -82 74q-12 57 -24 115 q-37 147 -58.5 458.5t-58.5 454.5q-6 25 6 47.5t35 24.5q16 4 33 4q57 0 88 -51q33 -172 78 -670q16 35 37.5 130t41.5 138q18 78 35 156q25 94 103 94q20 0 45 -6q2 -12 18.5 -14t18.5 -6q45 -100 67 -269q35 -238 43 -274q33 182 68 362q43 211 110 344q14 27 60 27 q32 0 57 -12z" />
<glyph unicode="X" horiz-adv-x="735" d="M754 1176q-158 -240 -265 -463q25 -59 132 -240q88 -147 112 -248q-16 -2 -34.5 -27.5t-36.5 -23.5q-76 6 -123 70q-25 33 -68 137q-41 92 -78 129q-72 -104 -152.5 -331.5t-148.5 -328.5q-111 -10 -127 35q-6 18 -6 37q0 33 25 86q35 76 39 86q115 336 284 629 q-61 137 -215 295q-10 10 -10 20q0 39 61 62q23 8 45 8q59 0 117 -78q82 -113 88 -119q10 14 101 179q61 111 116 172q41 12 103 4q47 -20 47 -66q0 -14 -6 -24z" />
<glyph unicode="Y" horiz-adv-x="745" d="M725 1212q-57 -231 -211 -602q-180 -432 -231 -596q-10 -33 -11 -82q2 -68 0 -86q-6 -72 -75 -71q-35 -4 -75 23.5t-38 58.5q6 150 76 342q63 164 127 327q-145 389 -248 570q-6 10 -6 20q0 23 25.5 42.5t50.5 19.5q4 0 77 -23q51 -78 107 -201q47 -104 92 -209 q41 123 82 244q47 141 104 234q16 29 58 28q57 0 96 -39z" />
<glyph unicode="Z" horiz-adv-x="716" d="M780 55q6 -14 6 -26q0 -23 -20.5 -42.5t-40.5 -37.5q-254 18 -584 110q-70 20 -96 33q-49 23 -72 64q2 16 0 41q233 266 289 333q158 195 250 363q-59 33 -133 33q-43 0 -126 -13.5t-124 -13.5q-53 0 -96 14q-59 35 -60 74q0 14 11 27q59 47 172 47h36.5h36.5q59 0 99 10 q82 -6 166 -14q98 -12 152 -49t54 -93q0 -16 -6 -32q-66 -162 -213 -348q-135 -160 -270 -318q305 -90 524 -117q22 0 45 -45z" />
<glyph unicode="[" />
<glyph unicode="\" horiz-adv-x="972" d="M1028 -168q0 -16 -19.5 -31.5t-43.5 -19.5q-8 0 -31 -8.5t-35 -8.5q-23 0 -35 21q-43 94 -143 283q-66 123 -209 366q-227 360 -594 897q-18 27 -12 62q14 86 114 80q25 -2 30 -4.5t16 -18.5q217 -324 434 -649q264 -395 401 -676q41 -72 80 -143q45 -82 47 -150z" />
<glyph unicode="]" />
<glyph unicode="^" />
<glyph unicode="_" horiz-adv-x="1105" d="M1026 -113q-2 -25 -6 -51t-21 -29q-57 2 -174 -4q-117 -16 -231 -24q-215 -16 -254 -21q-121 -12 -250 -43q-18 -4 -35 17q-37 45 -10 125q4 10 6 20q4 4 15 6q496 90 776 90q18 0 52 5.5t50 5.5q43 0 72 -23q22 -19 10 -74z" />
<glyph unicode="`" horiz-adv-x="751" d="M653 872q6 -14 -8 -20q-14 -4 -33 0q-145 29 -262 184q-90 141 -180 283q-25 37 -4 72q12 20 35 20q8 0 75 -31q35 -16 66 -67q25 -45 47 -90q33 -59 139 -179q98 -109 125 -172z" />
<glyph unicode="a" horiz-adv-x="811" d="M795 98q12 -33 12 -57q0 -41 -35 -71.5t-47 -28.5q-100 18 -127 161q-29 156 -68 260q-70 -6 -139 -12q-80 -10 -125 -49q-23 -63 -59 -225q-35 -150 -68 -228q-16 -37 -69 -20q-68 23 -72 61q-6 78 45 209q61 150 68 213q2 18 -27 41t-29 35q0 10 9.5 21.5t43 18.5 t37.5 22q37 102 117 380q68 242 121 371q12 29 51 29q29 0 51 -19q57 -49 74 -147q12 -84 23 -168q102 -484 213 -797zM496 489q-6 76 -27 170q-20 82 -39 164q-61 -170 -106 -340q33 6 172 6z" />
<glyph unicode="b" horiz-adv-x="786" d="M760 891q-27 -111 -135 -201q-104 -74 -209 -145q6 -31 42 -46.5t68 -29.5q170 -111 170 -262q0 -117 -80 -215q-61 -76 -182 -150l-196 -114q-25 -14 -54 -15q-68 0 -94 56q4 172 8 342q4 205 23 338q-43 29 -43 65q0 18 15.5 33.5t41.5 34.5q25 311 10 573 q-96 18 -127 86q-2 8 7.5 24.5t9.5 26.5q47 35 104 35q27 0 70 -8q61 -10 80 -12q98 -12 196 -62q221 -115 260 -223q27 -78 15 -131zM567 993q-10 76 -123 117q-16 6 -51 27q-25 16 -41 16q-8 0 -18 -4q-2 -35 -2 -74q0 -53 8 -180q6 -117 4 -182q14 0 43 21.5t33 23.5 q61 29 108 96t39 139zM506 190q4 23 4 43q0 61 -39 109q-104 51 -133 51q-16 0 -31 -6q2 -20 2 -45q0 -43 -11 -132t-11 -134q0 -66 16 -119q25 29 77 60.5t73 56.5q37 42 53 116z" />
<glyph unicode="c" horiz-adv-x="530" d="M618 1235q0 -55 -73 -70q-96 -18 -119 -43q-229 -242 -229 -624q0 -180 57 -340q47 -131 68 -172q51 -100 124 -144q31 -14 62 -26q33 -18 33 -52q0 -33 -21.5 -59.5t-46.5 -19.5q-27 4 -82 26q-98 57 -213 244q-29 47 -58.5 97t-43.5 95q-10 33 -35 265q-8 72 -8 139 q0 362 211 616q123 147 256 148q57 0 104 -35q14 -10 14 -45z" />
<glyph unicode="d" horiz-adv-x="716" d="M651 453q-20 -47 -39 -95q-25 -55 -53 -88q-63 -80 -127 -157q-76 -94 -137 -131q-20 -25 -45 -51.5t-49 -26.5q-12 0 -28.5 6t-36 14t-27.5 27q-6 86 -7 184q0 100 8.5 299t8.5 299q0 133 -10 244q-2 2 -46 47q-27 27 -26 49q0 10 4 21q10 25 45 28q27 4 53 6 q172 -37 361 -192q49 -41 80 -86q98 -145 98 -272q0 -66 -27 -125zM504 672q-18 129 -219 227q-14 -342 -9 -725q231 231 232 440q0 29 -4 58z" />
<glyph unicode="e" horiz-adv-x="749" d="M762 1024q-76 -31 -223.5 -72t-223.5 -71q-18 -53 -26 -238q33 -12 76 -12q31 0 96 10t96 10q57 0 98 -24q29 -41 29 -54q0 -14 -14 -22q-4 -2 -29 -29q-16 -18 -41 -16q-43 -10 -158 -12q-96 -2 -153 -25q-39 -152 -39 -240q0 -59 16 -94q96 -68 334 -57q16 0 34.5 15.5 t31.5 15.5q57 12 75 -86q6 -33 -11 -61t-50 -30q-248 -8 -430 39q-57 14 -104.5 63.5t-53.5 110.5q-18 178 0 320q-57 39 -51 76q2 18 31.5 33.5t34 32t16.5 194.5q-115 23 -113 86q2 59 72 94q66 27 131 53q78 39 193 70q98 27 198 51q10 2 25 2q55 0 129 -43 q2 -8 10 -30.5t8 -32.5q0 -17 -14 -27z" />
<glyph unicode="f" horiz-adv-x="782" d="M967 1300q0 -41 -26 -74.5t-67 -41.5q-16 -4 -44.5 9t-45.5 11q-90 -8 -221 -63q-166 -70 -217 -84q-8 -129 -8 -262t8 -267q16 -4 35 -4q41 0 147 33q100 29 154 23q45 -4 41 -35q-12 -80 -102 -123q-84 -27 -168 -55q-33 -4 -107 -21q-4 -41 -4 -92q0 -49 5 -149.5 t5 -149.5q0 -176 -55 -279q-12 -23 -37 -22q-25 0 -51.5 22.5t-34.5 49.5q-20 63 -20 147q0 29 14 199q10 123 -4 198q-4 27 -41 43q-47 20 -60 33q-6 14 5 82q25 -4 42 16.5t33 20.5q8 0 17 -2q20 100 20 225q0 43 -16 318q-39 10 -77 48t-38 74q0 51 74 62q100 14 371 102 q238 78 380 80q37 0 65 -19.5t28 -52.5z" />
<glyph unicode="g" horiz-adv-x="876" d="M797 512q-55 -137 -72 -338q-10 -174 -18 -348q-4 -51 -68 -51q-18 0 -35 6q-88 37 -88 137q0 29 8 87t8 85q8 59 21 178q-141 -133 -320 -198q-25 -8 -49 -9q-94 0 -174 107q-45 59 -45 147q0 78 35 183q109 332 346 649q119 158 211 158q82 0 92 -62q8 -51 -35 -74 q-72 -39 -75 -43q-172 -190 -316 -491q-88 -186 -88 -334q0 -27 2 -53q4 -2 12.5 -19.5t22.5 -11.5q135 53 408 281q20 16 47 94q20 57 73 57q-16 0 33 4q25 4 33 -8q39 -57 39 -94q0 -19 -8 -39z" />
<glyph unicode="h" horiz-adv-x="831" d="M758 1145q-4 -182 -60 -578q-51 -375 -51 -575q0 -63 4 -121q0 -14 -12 -27.5t-29 -13.5q-57 0 -75 10q-78 45 -78 170q0 25 3 77t3 77q0 41 10 125t10 129q-29 -2 -79 8t-72 10q-27 0 -51 -8q-49 -162 -58 -477q-70 -29 -135 6q-47 25 -47 98q0 16 3 44t3 34 q6 111 47 438q35 274 33 437q0 23 31.5 28.5t36.5 12.5q12 -14 59 -25q39 -8 47 -37q16 -51 16 -115q0 -45 -13 -142t-13 -148q25 -18 61 -23q25 -4 70 -2q59 4 72 4q51 215 90 557q8 72 51 72q109 10 123 -45z" />
<glyph unicode="i" horiz-adv-x="348" d="M291 1036q4 -59 4 -123q0 -139 -28.5 -419.5t-28.5 -423.5q0 -53 2 -105q-18 -57 -80 -55q-88 4 -96.5 75.5t-8.5 151.5q0 139 34 415.5t34 414.5q0 53 -4 104q20 39 69 39q39 0 78 -23q8 6 13 7q6 0 6 -21q-2 -25 0 -29q2 -6 6 -8z" />
<glyph unicode="j" horiz-adv-x="473" d="M379 543q-35 -627 -367 -793q-23 -10 -55 -10q-55 0 -96 27q-59 41 -60 81q0 45 52 46q10 0 32.5 -6.5t32.5 -6.5q31 0 53 27q238 262 238 764q0 127 -14 303q-6 66 -25 199q-4 23 12.5 41t42.5 14q25 2 72 -6q49 -29 61 -103q6 -66 11 -131q22 -213 10 -446z" />
<glyph unicode="k" horiz-adv-x="768" d="M762 113q12 -10 12 -29q0 -12 -16 -61q-8 2 -15 2q-12 0 -31.5 -10.5t-29.5 -10.5t-23 8q-137 86 -426 258q6 -76 11 -217q0 -16 4 -49t4 -47q0 -49 -43 -68q-12 -8 -35 -8q-25 0 -31 15q-53 18 -61 71q-25 147 -25 346q0 72 4.5 214.5t4.5 213.5q0 217 -29 377 q-4 25 29 33q25 4 51 8q27 -8 55.5 -19.5t30.5 -35.5q31 -279 26 -442q84 76 193 200q92 104 182 211q25 10 53 10q80 0 84 -55q-57 -127 -225 -301q-197 -203 -252 -289q127 -76 256 -151q144 -90 242 -174z" />
<glyph unicode="l" horiz-adv-x="649" d="M649 238q-4 -2 -239 -170q-137 -98 -244 -146q-12 -6 -25 -6q-29 0 -53 37q-37 49 -39 51q-4 180 23 502q31 342 30 493q0 104 -8 197q27 27 68 27q78 0 90 -58q6 -168 -14.5 -502.5t-16.5 -502.5q57 25 150 86q100 70 145 92q10 0 36 4t38 4q41 0 59 -33q25 -44 0 -75z " />
<glyph unicode="m" horiz-adv-x="1110" d="M1065 -35q8 -41 -59 -45q-45 -2 -93 39q-39 35 -61 113q-20 72 -25 202q-4 147 -14 203q-27 -92 -88 -274q-37 -100 -45 -115q-33 -63 -82 -57q-98 23 -152 110q-35 57 -65 183q-33 137 -55 184q-88 -428 -189 -639q-14 -31 -86 4q-59 29 -59 82q0 18 43 131 q18 49 143 473q43 147 90 518q4 4 21 43q10 29 37 29q70 0 96 -27q0 -59 19.5 -191t19.5 -200q18 -115 35 -231q23 -131 82 -215q197 547 249 864q8 33 62 33q76 0 86 -49q14 -74 14 -170q0 -31 -4 -134q-2 -86 0 -139q19 -432 80 -725z" />
<glyph unicode="n" horiz-adv-x="972" d="M926 1241q-29 -274 -56 -551q-35 -328 -34 -547q0 -72 4 -141q2 -33 -23.5 -57.5t-58.5 -24.5q-63 0 -107 86q-131 256 -325 803q-4 12 -11 12q-14 0 -18 -28q-35 -293 -35 -617q0 -156 8 -317q2 -59 -34 -82q-14 -14 -31 -15q-14 0 -37 13q-31 14 -39 18q-27 8 -33 49 q-2 33 -4 68q-6 115 -6 240q0 217 25 542q39 496 43 549q2 45 75 45q35 4 103 -51q66 -125 162 -406q92 -268 168 -407q31 272 96 823q6 41 59 41q18 0 43 -6q33 -8 39 -10q21 -9 27 -29z" />
<glyph unicode="o" horiz-adv-x="786" d="M754 442q-121 -272 -342 -323q-27 -6 -54 -6q-117 0 -235 127q-80 86 -80 223q0 152 90 325q39 74 94 127q63 63 121 64q33 0 61.5 -24.5t153.5 -65.5q98 -33 139 -111q72 -137 72 -235q0 -56 -20 -101zM590 569q-14 150 -80 179q-10 4 -18 4q-25 0 -62 -41 q-41 -47 -63 -56q-14 -6 -41 12.5t-35 18.5q-6 0 -10 -4q-72 -61 -72 -190q0 -88 41 -150q57 -84 96 -84q90 0 174 113q80 106 70 198z" />
<glyph unicode="p" horiz-adv-x="714" d="M641 709q-78 -168 -133 -224l-94 -94q-59 -47 -119 -57q-8 -41 -8 -96q0 -39 6 -118t6 -116q0 -139 -66 -209l-57 31q-35 18 -39 45q-20 133 -20 297q0 109 12 324t12 325q0 160 -18 293q-16 -6 -30.5 20.5t-24.5 30.5q10 66 34 66q31 10 127 -4q266 -43 402 -234 q43 -61 43 -139q0 -67 -33 -141zM508 866q10 82 -70 129q-4 0 -147 60q23 -377 14 -529q183 172 203 340z" />
<glyph unicode="q" horiz-adv-x="813" d="M877 -168q6 -12 6 -25q0 -27 -27 -46t-53 -19q-35 0 -70 37q-27 31 -55 63q-45 43 -92 117q-41 63 -80 127l-94 -74q-57 -39 -111 -39q-66 0 -132.5 48.5t-94.5 111.5q-47 104 -47 238q0 205 118 514q33 86 62 123q45 61 121 79q18 4 82 31q53 23 82 23q23 0 38 -8 q29 -12 82 -56q72 -92 95 -250q12 -94 8 -274q-2 -57 -52.5 -159.5t-50.5 -160.5q2 -90 111 -208q134 -148 154 -193zM516 453q49 104 49 245q0 156 -53 293q-18 6 -64.5 -17.5t-93.5 -49.5q-74 -37 -102 -156q-16 -102 -35 -205q-27 -121 -27 -211q0 -137 62 -225 q6 -10 20 -10q31 0 56 37q2 4 49 51q31 31 31 61q0 20 -13 43q-70 139 -71 146q-35 88 -31 155q4 45 61 49q53 4 97 -38q23 -23 36 -84t29 -84z" />
<glyph unicode="r" horiz-adv-x="729" d="M893 -14q6 -8 6 -19q0 -47 -98 -71q-109 84 -271 258q-180 195 -268 270q-6 -53 -22 -279q-10 -170 -37 -270q-4 0 -25.5 -10t-36.5 -6q-90 20 -90 125q0 31 8 82q8 59 11 73q8 119 10 283v223q0 279 31 469q20 127 239 117q111 -4 193 -111q76 -98 75 -213 q0 -96 -71 -192q-61 -86 -152 -135q-37 -20 -37 -45q0 -27 43 -64q33 -27 66 -53q2 -2 225 -205q142 -127 201 -227zM461 905q6 37 4 66q-6 43 -36 77.5t-95 34.5q-49 0 -62 -30q-10 -51 -10 -117q0 -27 6 -137q4 -84 0 -137q170 126 193 243z" />
<glyph unicode="s" horiz-adv-x="567" d="M494 1239q0 -41 -60 -72q-16 -8 -35 -2q-29 8 -30 9q-12 0 -25 -13q-111 -111 -111 -270q0 -59 19 -111q8 -23 156 -317q98 -197 98 -334q0 -113 -55 -217q-18 -35 -93 -90q-59 -43 -106 -43q-18 0 -35 6q-61 27 -61 68q0 25 30 59q8 10 39 12t41 25q43 90 43 184 q0 133 -132 386t-132 405q0 125 49 223q55 113 158 162q47 23 92 22q86 0 129 -47q21 -22 21 -45z" />
<glyph unicode="t" horiz-adv-x="757" d="M1090 1276q-18 -74 -70 -86q-133 -33 -463 -86q-41 -510 -41 -850q0 -129 4 -254q2 -39 -4 -59q-10 -33 -41 -31q-59 2 -98 50t-43 108q-4 76 -4 159q0 135 18 428q18 281 17 428q-55 4 -154 -10q-113 -16 -156 -16q-100 0 -164 53q-25 53 -24 55q0 14 14 31 q66 23 269 41q178 18 266 66q72 -23 164 -23t176 23q25 2 125 28q74 18 123 12q37 0 30 -30q56 0 56 -37z" />
<glyph unicode="u" horiz-adv-x="796" d="M795 1116q-14 -143 -82 -383q-92 -322 -107 -389q-45 -207 -172 -377q-80 -109 -184 -106q-92 2 -137 116q-78 193 -78 453q0 150 28 385q-2 -20 -2 127q0 127 99 127q20 0 43.5 -11t46.5 -24q2 -104 -6 -307q-10 -217 -11 -313q0 -102 7 -187q4 -43 36 -164 q86 96 136 256q16 53 65 291q39 180 88 283q14 29 24.5 108.5t24.5 110.5q23 49 78 49q72 0 103 -45z" />
<glyph unicode="v" horiz-adv-x="948" d="M967 1176q-80 -150 -228 -560q-43 -121 -102 -399q-57 -266 -111 -403q-18 -20 -43 -21q-29 0 -73 31q-80 190 -187 627q-100 416 -200 632q27 51 45 52q16 10 32 10q33 0 115 -62q74 -168 141 -411q53 -211 109 -420q76 250 151 502q90 283 185 487q31 53 106 35 q8 -2 20.5 -15.5t31 -14.5t18.5 -29q0 -21 -10 -41z" />
<glyph unicode="w" horiz-adv-x="1021" d="M944 1055q47 -23 47 -66q0 -29 -24 -78q-31 -66 -33 -73q-49 -152 -93 -461t-89 -455q-12 -41 -70 -41q-27 0 -47 10q-76 39 -109 152q-2 10 -39 205q-18 102 -34 219q-29 -57 -76 -285q-41 -197 -96 -250q-16 -16 -58 -4q-61 8 -82 74q-12 57 -24 115 q-37 147 -58.5 458.5t-58.5 454.5q-6 25 6 47.5t35 24.5q16 4 33 4q57 0 88 -51q33 -172 78 -670q16 35 37.5 130t41.5 138q18 78 35 156q25 94 103 94q20 0 45 -6q2 -12 18.5 -14t18.5 -6q45 -100 67 -269q35 -238 43 -274q33 182 68 362q43 211 110 344q14 27 60 27 q32 0 57 -12z" />
<glyph unicode="x" horiz-adv-x="735" d="M754 1176q-158 -240 -265 -463q25 -59 132 -240q88 -147 112 -248q-16 -2 -34.5 -27.5t-36.5 -23.5q-76 6 -123 70q-25 33 -68 137q-41 92 -78 129q-72 -104 -152.5 -331.5t-148.5 -328.5q-111 -10 -127 35q-6 18 -6 37q0 33 25 86q35 76 39 86q115 336 284 629 q-61 137 -215 295q-10 10 -10 20q0 39 61 62q23 8 45 8q59 0 117 -78q82 -113 88 -119q10 14 101 179q61 111 116 172q41 12 103 4q47 -20 47 -66q0 -14 -6 -24z" />
<glyph unicode="y" horiz-adv-x="745" d="M725 1212q-57 -231 -211 -602q-180 -432 -231 -596q-10 -33 -11 -82q2 -68 0 -86q-6 -72 -75 -71q-35 -4 -75 23.5t-38 58.5q6 150 76 342q63 164 127 327q-145 389 -248 570q-6 10 -6 20q0 23 25.5 42.5t50.5 19.5q4 0 77 -23q51 -78 107 -201q47 -104 92 -209 q41 123 82 244q47 141 104 234q16 29 58 28q57 0 96 -39z" />
<glyph unicode="z" horiz-adv-x="716" d="M780 55q6 -14 6 -26q0 -23 -20.5 -42.5t-40.5 -37.5q-254 18 -584 110q-70 20 -96 33q-49 23 -72 64q2 16 0 41q233 266 289 333q158 195 250 363q-59 33 -133 33q-43 0 -126 -13.5t-124 -13.5q-53 0 -96 14q-59 35 -60 74q0 14 11 27q59 47 172 47h36.5h36.5q59 0 99 10 q82 -6 166 -14q98 -12 152 -49t54 -93q0 -16 -6 -32q-66 -162 -213 -348q-135 -160 -270 -318q305 -90 524 -117q22 0 45 -45z" />
<glyph unicode="{" />
<glyph unicode="|" horiz-adv-x="647" d="M469 1411q-43 -545 -66 -1073q2 -143 3 -422q0 -57 8 -159.5t8 -155.5q0 -29 -28.5 -38t-52.5 -17.5t-50 -4.5q-27 4 -35 19q-31 59 -35 153v162q-10 139 -10 295q0 246 29 641q35 504 41 629q2 25 31.5 45t64.5 20q39 0 66.5 -28.5t25.5 -65.5z" />
<glyph unicode="}" />
<glyph unicode="~" />
<glyph unicode="&#xa0;" />
<glyph unicode="&#xa1;" horiz-adv-x="546" d="M508 1174q6 -31 -38 -60t-64 -27q-33 4 -62 27q-35 25 -39 64q-4 29 8.5 56.5t32.5 29.5q14 0 22.5 9t16.5 7q109 -40 123 -106zM457 920q2 -43 2 -86q0 -193 -62 -474q-94 -414 -102 -466q-4 -25 -30.5 -34.5t-51.5 -0.5q-35 10 -70 18q-39 16 -37 51q12 143 105 516 q80 324 74 531q0 18 21.5 33.5t39.5 11.5q107 -20 111 -100z" />
<glyph unicode="&#xa2;" />
<glyph unicode="&#xa3;" />
<glyph unicode="&#xa4;" />
<glyph unicode="&#xa5;" />
<glyph unicode="&#xa6;" />
<glyph unicode="&#xa7;" />
<glyph unicode="&#xa8;" horiz-adv-x="761" d="M623 1380q18 -74 -8.5 -100.5t-71.5 -22.5q-41 2 -78 38t-37 75q0 25 20.5 46.5t43.5 19.5q78 -6 77 -6q44 -11 54 -50zM281 1380q18 -74 -8.5 -100.5t-73.5 -22.5q-41 2 -77 39t-36 74q0 25 19.5 46.5t41.5 19.5q39 -2 78 -6q46 -11 56 -50z" />
<glyph unicode="&#xa9;" />
<glyph unicode="&#xaa;" />
<glyph unicode="&#xab;" horiz-adv-x="1032" d="M981 121q2 -6 2 -12q0 -25 -23.5 -46.5t-50.5 -25.5q-53 -6 -100 37l-70 82q-80 80 -159 161q-88 92 -131 177q-8 14 -9 32q0 49 39 90q262 276 387 353q27 16 47 16q29 0 33 -31q14 -86 -14 -120q-154 -193 -316 -312q43 -72 191 -196q135 -113 174 -205zM571 98 q2 -6 2 -12q0 -23 -23.5 -44.5t-49.5 -25.5q-53 -6 -101 37q-35 39 -69 80q-80 80 -160 162q-88 92 -131 176q-8 14 -8 33q0 51 39 92q260 274 389 352q27 16 47 17q29 0 33 -33q14 -86 -15 -121q-51 -66 -153.5 -165t-163.5 -144q43 -72 190 -197q135 -115 174 -207z" />
<glyph unicode="&#xac;" />
<glyph unicode="&#xad;" horiz-adv-x="937" d="M870 543q-4 -25 -8 -51.5t-20 -28.5q-57 2 -172 -4q-78 -6 -234 -25q-59 -2 -317 -51q-18 -4 -35 14q-39 47 -10 127q4 10 6 21q4 4 14 6q145 29 293 57q115 18 297 19q18 0 52 5t50 5q43 0 69.5 -20.5t14.5 -73.5z" />
<glyph unicode="&#xae;" />
<glyph unicode="&#xaf;" />
<glyph unicode="&#xb0;" />
<glyph unicode="&#xb1;" />
<glyph unicode="&#xb2;" />
<glyph unicode="&#xb3;" />
<glyph unicode="&#xb4;" horiz-adv-x="884" d="M791 1358q-8 -125 -125 -271q-100 -113 -201 -227q-35 -45 -127 -26q-27 6 -27 30q0 20 23 68q51 102 153 252q141 205 170 250q12 18 35 18q33 0 67 -31.5t32 -62.5z" />
<glyph unicode="&#xb5;" />
<glyph unicode="&#xb6;" />
<glyph unicode="&#xb7;" />
<glyph unicode="&#xb8;" />
<glyph unicode="&#xb9;" />
<glyph unicode="&#xba;" />
<glyph unicode="&#xbb;" horiz-adv-x="1032" d="M981 514q8 -14 8 -33q0 -51 -39 -92q-260 -274 -389 -352q-27 -16 -47 -17q-29 0 -33 31q-14 86 17 123q150 188 315 309q-43 72 -190 197q-135 113 -174 205q-2 6 -3 12q0 25 24 46.5t50 25.5q53 6 101 -37q35 -41 69 -82l160 -160q88 -94 131 -176zM571 492 q8 -14 9 -33q0 -49 -39 -90q-262 -276 -387 -353q-27 -16 -48 -16q-29 0 -32 31q-14 86 14 121q154 193 315 311q-43 72 -190 196q-135 113 -174 205q-2 6 -2 13q0 25 23.5 46t50.5 25q53 6 100 -37l70 -82q80 -80 159 -161q88 -92 131 -176z" />
<glyph unicode="&#xbc;" />
<glyph unicode="&#xbd;" />
<glyph unicode="&#xbe;" />
<glyph unicode="&#xbf;" horiz-adv-x="720" d="M655 1147q23 -53 -7 -76.5t-99 -9.5q-59 12 -82 51q-10 16 -10 33q0 31 32.5 59.5t63.5 28.5q67 0 102 -86zM645 182q2 -16 2 -32q0 -96 -78 -189q-43 -51 -153 -139q-68 -53 -131 -51q-80 4 -145.5 51t-84.5 127q-14 57 -14 112q0 156 119 345q102 158 207 315 q25 51 47 102q33 59 84 66q106 12 102 -35q-14 -158 -188 -420q-178 -268 -199 -420q-4 -31 13.5 -56.5t45.5 -25.5q25 0 68 43q29 39 92 117q14 18 37 115q14 63 80 57q86 -8 96 -82z" />
<glyph unicode="&#xc0;" horiz-adv-x="811" d="M795 98q12 -33 12 -57q0 -41 -35 -71.5t-47 -28.5q-100 18 -127 161q-29 156 -68 260q-70 -6 -139 -12q-80 -10 -125 -49q-23 -63 -59 -225q-35 -150 -68 -228q-16 -37 -69 -20q-68 23 -72 61q-6 78 45 209q61 150 68 213q2 18 -27 41t-29 35q0 10 9.5 21.5t43 18.5 t37.5 22q33 96 113 374q68 238 121 367q-53 88 -160 256q-25 37 -6 72q12 20 35 20q10 0 78 -31q35 -16 65 -67q23 -45 45 -90q33 -59 139 -179q98 -109 125 -172q6 -14 -7 -19t-34 -1q-41 8 -92 33q42 -379 228 -914zM496 489q-6 76 -27 170q-20 82 -39 164 q-61 -170 -106 -340q33 6 172 6z" />
<glyph unicode="&#xc1;" horiz-adv-x="811" d="M795 98q12 -33 12 -57q0 -41 -35 -71.5t-47 -28.5q-100 18 -127 161q-29 156 -68 260q-70 -6 -139 -12q-80 -10 -125 -49q-23 -63 -59 -225q-35 -150 -68 -228q-16 -37 -69 -20q-68 23 -72 61q-6 78 45 209q61 150 68 213q2 18 -27 41t-29 35q0 10 9.5 21.5t43 18.5 t37.5 22q55 186 168 552q-10 -12 -32 -38q-33 -45 -127 -27q-29 6 -29 33q0 20 22 65q51 102 156 252q139 201 170 250q12 18 35 18q33 0 65.5 -31.5t30.5 -62.5q-8 -123 -112 -256q51 -51 67 -145q12 -82 23 -164q104 -488 213 -797zM496 489q-6 76 -27 170q-20 82 -39 164 q-61 -170 -106 -340q33 6 172 6z" />
<glyph unicode="&#xc2;" horiz-adv-x="811" d="M795 98q12 -33 12 -57q0 -41 -35 -71.5t-47 -28.5q-100 18 -127 161q-29 156 -68 260q-70 -6 -139 -12q-80 -10 -125 -49q-23 -63 -59 -225q-35 -150 -68 -228q-16 -37 -69 -20q-68 23 -72 61q-6 78 45 209q61 150 68 213q2 18 -27 41t-29 35q0 10 9.5 21.5t43 18.5 t37.5 22q37 102 117 380q68 242 121 371q12 29 51 29q29 0 51 -19q57 -49 74 -147q12 -84 23 -168q102 -484 213 -797zM496 489q-6 76 -27 170q-20 82 -39 164q-61 -170 -106 -340q33 6 172 6z" />
<glyph unicode="&#xc3;" horiz-adv-x="811" d="M795 98q12 -33 12 -57q0 -41 -35 -71.5t-47 -28.5q-100 18 -127 161q-29 156 -68 260q-70 -6 -139 -12q-80 -10 -125 -49q-23 -63 -59 -225q-35 -150 -68 -228q-16 -37 -69 -20q-68 23 -72 61q-6 78 45 209q61 150 68 213q2 18 -27 41t-29 35q0 10 9.5 21.5t43 18.5 t37.5 22q37 102 117 380q68 242 121 371q12 29 51 29q29 0 51 -19q57 -49 74 -147q12 -84 23 -168q102 -484 213 -797zM496 489q-6 76 -27 170q-20 82 -39 164q-61 -170 -106 -340q33 6 172 6z" />
<glyph unicode="&#xc4;" horiz-adv-x="811" d="M739 1434q18 -74 -8 -100.5t-74 -22.5q-41 2 -77.5 36.5t-36.5 73.5q0 25 20.5 47.5t42.5 20.5q39 -2 78 -6q45 -10 55 -49zM395 1434q18 -74 -8.5 -100.5t-73.5 -22.5q-39 2 -75.5 36.5t-36.5 73.5q0 25 20.5 47.5t42.5 20.5l78 -6q43 -10 53 -49zM795 98q12 -33 12 -57 q0 -41 -35 -71.5t-47 -28.5q-100 18 -127 161q-29 156 -68 260q-70 -6 -139 -12q-80 -10 -125 -49q-23 -63 -59 -225q-35 -150 -68 -228q-16 -37 -69 -20q-68 23 -72 61q-6 78 45 209q61 150 68 213q2 18 -27 41t-29 35q0 10 9.5 21.5t43 18.5t37.5 22q37 102 117 380 q68 242 121 371q12 29 51 29q29 0 51 -19q57 -49 74 -147q12 -84 23 -168q102 -484 213 -797zM496 489q-6 76 -27 170q-20 82 -39 164q-61 -170 -106 -340q33 6 172 6z" />
<glyph unicode="&#xc5;" horiz-adv-x="811" d="M795 98q12 -33 12 -57q0 -41 -35 -71.5t-47 -28.5q-100 18 -127 161q-29 156 -68 260q-70 -6 -139 -12q-80 -10 -125 -49q-23 -63 -59 -225q-35 -150 -68 -228q-16 -37 -69 -20q-68 23 -72 61q-6 78 45 209q61 150 68 213q2 18 -27 41t-29 35q0 10 9.5 21.5t43 18.5 t37.5 22q37 102 117 380q68 242 121 371q12 29 51 29q29 0 51 -19q57 -49 74 -147q12 -84 23 -168q102 -484 213 -797zM496 489q-6 76 -27 170q-20 82 -39 164q-61 -170 -106 -340q33 6 172 6z" />
<glyph unicode="&#xc6;" horiz-adv-x="1234" d="M1174 -23q-78 8 -209 -34q-139 -45 -201 -45q-55 0 -105 20q-39 16 -49 96q-10 96 -41 283q-31 -4 -112 -29q-72 -23 -115 -22q-16 0 -33 2q-72 -143 -137 -387q-4 -14 -22 -17q-12 -2 -39 2t-35 4q-31 0 -76 68q-8 12 -8 29q0 18 14 49q23 41 25 47q166 451 411 991 q10 31 86 31q6 -6 58 -33q37 -18 41 -51t32 -12q88 39 230 84q219 72 227 74.5t19 2.5q18 0 47 -16q35 -23 43 -24q23 -8 22 -27q0 8 -14 -48.5t-86 -76.5q-63 -14 -127 -31q-109 -35 -324 -127q18 -154 49 -254l250 25q27 2 73 31.5t65 29.5q14 0 24 -10q2 -2 43 -29 q23 -16 23 -32q0 -18 -19 -45q-27 -41 -117 -80q-51 -23 -260 -51q-16 -2 -71 -41q6 -84 30 -244q29 4 164 39q100 27 160 26q25 0 47 -4q102 -16 103 -78q0 -35 -26.5 -62.5t-59.5 -23.5zM553 492q-4 84 -8 112q-6 61 -23 105h-14q-63 -131 -66 -136q-35 -78 -51 -143 q18 -2 45 7t43 9q8 0 19 -2q14 0 25.5 24t29.5 24z" />
<glyph unicode="&#xc7;" horiz-adv-x="530" d="M356 -168q-29 -150 -47 -221q-33 -123 -73 -213q-10 -20 -41 -21q-29 0 -63 16.5t-34 55.5q0 23 15 59l20 58q47 164 53 188q27 109 35 193q0 6 8 26q-14 20 -51 80q-29 47 -58.5 97.5t-43.5 95.5q-10 33 -35 264q-8 72 -8 139q0 362 211 617q123 147 256 147 q57 0 104 -35q14 -10 14 -45q0 -55 -73 -69q-96 -18 -119 -43q-229 -242 -229 -625q0 -180 57 -340q47 -131 68 -172q51 -100 124 -143q31 -14 62 -27q33 -18 33 -51t-21.5 -59.5t-46.5 -20.5q-27 6 -82 27q-6 4 -35 22z" />
<glyph unicode="&#xc8;" horiz-adv-x="749" d="M762 1024q-39 -16 -117 -41q2 -12 -12 -16t-31 0l-6 2q-92 -25 -281 -88q-18 -53 -26 -238q33 -12 76 -12q31 0 96 10t96 10q57 0 98 -24q29 -41 29 -54q0 -14 -14 -22q-4 -2 -29 -29q-16 -18 -41 -16q-43 -10 -158 -12q-96 -2 -153 -25q-39 -152 -39 -240q0 -59 16 -94 q96 -68 334 -57q16 0 34.5 15.5t31.5 15.5q57 12 75 -86q6 -33 -11 -61t-50 -30q-248 -8 -430 39q-57 14 -104.5 63.5t-53.5 110.5q-18 178 0 320q-57 39 -51 76q2 18 31.5 33.5t34 32t16.5 194.5q-115 23 -113 86q2 59 72 94q66 27 131 53q76 37 170 64q-51 57 -117 166 q-92 152 -104 170q-25 37 -6 71q12 20 34 21q10 0 78 -31q35 -16 66 -68q23 -45 47.5 -91t155.5 -197q72 18 92 18q55 0 129 -43q2 -8 10 -30.5t8 -32.5q0 -17 -14 -27z" />
<glyph unicode="&#xc9;" horiz-adv-x="749" d="M762 1024q-76 -31 -223.5 -72t-223.5 -71q-18 -53 -26 -238q33 -12 76 -12q31 0 96 10t96 10q57 0 98 -24q29 -41 29 -54q0 -14 -14 -22q-4 -2 -29 -29q-16 -18 -41 -16q-43 -10 -158 -12q-96 -2 -153 -25q-39 -152 -39 -240q0 -59 16 -94q96 -68 334 -57q16 0 34.5 15.5 t31.5 15.5q57 12 75 -86q6 -33 -11 -61t-50 -30q-248 -8 -430 39q-57 14 -104.5 63.5t-53.5 110.5q-18 178 0 320q-57 39 -51 76q2 18 31.5 33.5t34 32t16.5 194.5q-115 23 -113 86q2 59 70 92q63 27 127 51q51 98 151 246q137 197 166 242q12 18 35 18q33 0 65.5 -33 t30.5 -63q-8 -141 -159 -312l133 29q55 0 129 -43q2 -8 10 -30.5t8 -32.5q0 -17 -14 -27z" />
<glyph unicode="&#xca;" horiz-adv-x="749" d="M762 1024q-76 -31 -223.5 -72t-223.5 -71q-18 -53 -26 -238q33 -12 76 -12q31 0 96 10t96 10q57 0 98 -24q29 -41 29 -54q0 -14 -14 -22q-4 -2 -29 -29q-16 -18 -41 -16q-43 -10 -158 -12q-96 -2 -153 -25q-39 -152 -39 -240q0 -59 16 -94q96 -68 334 -57q16 0 34.5 15.5 t31.5 15.5q57 12 75 -86q6 -33 -11 -61t-50 -30q-248 -8 -430 39q-57 14 -104.5 63.5t-53.5 110.5q-18 178 0 320q-57 39 -51 76q2 18 31.5 33.5t34 32t16.5 194.5q-115 23 -113 86q2 59 72 94q66 27 131 53q78 39 193 70q98 27 198 51q10 2 25 2q55 0 129 -43 q2 -8 10 -30.5t8 -32.5q0 -17 -14 -27z" />
<glyph unicode="&#xcb;" horiz-adv-x="749" d="M733 1425q18 -74 -8.5 -100.5t-73.5 -21.5q-41 2 -77.5 36.5t-36.5 73.5q0 25 20.5 47.5t42.5 20.5q39 -2 78 -6q45 -11 55 -50zM389 1425q18 -74 -8.5 -100.5t-73.5 -21.5q-39 2 -75.5 36.5t-36.5 73.5q0 25 20.5 47.5t42.5 20.5l78 -6q43 -11 53 -50zM762 1024 q-76 -31 -223.5 -72t-223.5 -71q-18 -53 -26 -238q33 -12 76 -12q31 0 96 10t96 10q57 0 98 -24q29 -41 29 -54q0 -14 -14 -22q-4 -2 -29 -29q-16 -18 -41 -16q-43 -10 -158 -12q-96 -2 -153 -25q-39 -152 -39 -240q0 -59 16 -94q96 -68 334 -57q16 0 34.5 15.5t31.5 15.5 q57 12 75 -86q6 -33 -11 -61t-50 -30q-248 -8 -430 39q-57 14 -104.5 63.5t-53.5 110.5q-18 178 0 320q-57 39 -51 76q2 18 31.5 33.5t34 32t16.5 194.5q-115 23 -113 86q2 59 72 94q66 27 131 53q78 39 193 70q98 27 198 51q10 2 25 2q55 0 129 -43q2 -8 10 -30.5t8 -32.5 q0 -17 -14 -27z" />
<glyph unicode="&#xcc;" horiz-adv-x="348" d="M438 1116q6 -14 -8 -20q-14 -4 -33 0q-145 29 -217 129q-68 113 -135 227q-25 37 -6 72q12 20 35 20q10 0 78 -31q35 -16 65 -67q23 -45 45 -90q33 -59 94 -123q55 -54 82 -117zM291 1036q4 -59 4 -123q0 -139 -28.5 -419.5t-28.5 -423.5q0 -53 2 -105q-18 -57 -80 -55 q-88 4 -96.5 75.5t-8.5 151.5q0 139 34 415.5t34 414.5q0 53 -4 104q20 39 69 39q39 0 78 -23q8 6 13 7q6 0 6 -21q-2 -25 0 -29q2 -6 6 -8z" />
<glyph unicode="&#xcd;" horiz-adv-x="348" d="M412 1460q-10 -147 -197 -354q31 -6 51 -19q8 6 13 7q6 0 6 -21q-2 -25 0 -29q2 -6 6 -8q4 -59 4 -123q0 -139 -28.5 -419.5t-28.5 -423.5q0 -53 2 -105q-18 -57 -80 -55q-88 4 -96.5 75.5t-8.5 151.5q0 139 35 434q35 283 31 433q-20 -23 -33 -41q-33 -45 -127 -27 q-29 6 -29 33q0 20 23 65q51 102 156 252q139 201 170 250q12 18 34 18q33 0 66 -31.5t31 -62.5z" />
<glyph unicode="&#xce;" horiz-adv-x="348" d="M291 1036q4 -59 4 -123q0 -139 -28.5 -419.5t-28.5 -423.5q0 -53 2 -105q-18 -57 -80 -55q-88 4 -96.5 75.5t-8.5 151.5q0 139 34 415.5t34 414.5q0 53 -4 104q20 39 69 39q39 0 78 -23q8 6 13 7q6 0 6 -21q-2 -25 0 -29q2 -6 6 -8z" />
<glyph unicode="&#xcf;" horiz-adv-x="348" d="M467 1413q18 -72 -8.5 -98.5t-73.5 -22.5q-39 2 -76 37t-37 74q0 25 20.5 46t43.5 19l78 -6q43 -10 53 -49zM125 1413q18 -72 -8.5 -98.5t-73.5 -22.5q-41 2 -78 37t-37 74q0 25 20.5 46t43.5 19q39 -2 78 -6q45 -10 55 -49zM291 1036q4 -59 4 -123q0 -139 -28.5 -419.5 t-28.5 -423.5q0 -53 2 -105q-18 -57 -80 -55q-88 4 -96.5 75.5t-8.5 151.5q0 139 34 415.5t34 414.5q0 53 -4 104q20 39 69 39q39 0 78 -23q8 6 13 7q6 0 6 -21q-2 -25 0 -29q2 -6 6 -8z" />
<glyph unicode="&#xd0;" />
<glyph unicode="&#xd1;" horiz-adv-x="972" d="M926 1241q-29 -274 -56 -551q-35 -328 -34 -547q0 -72 4 -141q2 -33 -23.5 -57.5t-58.5 -24.5q-63 0 -107 86q-131 256 -325 803q-4 12 -11 12q-14 0 -18 -28q-35 -293 -35 -617q0 -156 8 -317q2 -59 -34 -82q-14 -14 -31 -15q-14 0 -37 13q-31 14 -39 18q-27 8 -33 49 q-2 33 -4 68q-6 115 -6 240q0 217 25 542q39 496 43 549q2 45 75 45q35 4 103 -51q66 -125 162 -406q92 -268 168 -407q31 272 96 823q6 41 59 41q18 0 43 -6q33 -8 39 -10q21 -9 27 -29z" />
<glyph unicode="&#xd2;" horiz-adv-x="786" d="M741 985q6 -14 -8 -20q-14 -4 -33 0q-145 29 -262 184q-90 141 -180 283q-25 37 -4 71q12 20 35 21q8 0 76 -31q35 -16 65 -68q25 -45 47 -90q33 -59 139 -178q98 -109 125 -172zM754 442q-121 -272 -342 -323q-27 -6 -54 -6q-117 0 -235 127q-80 86 -80 223 q0 152 90 325q39 74 94 127q63 63 121 64q33 0 61.5 -24.5t153.5 -65.5q98 -33 139 -111q72 -137 72 -235q0 -56 -20 -101zM590 569q-14 150 -80 179q-10 4 -18 4q-25 0 -62 -41q-41 -47 -63 -56q-14 -6 -41 12.5t-35 18.5q-6 0 -10 -4q-72 -61 -72 -190q0 -88 41 -150 q57 -84 96 -84q90 0 174 113q80 106 70 198z" />
<glyph unicode="&#xd3;" horiz-adv-x="786" d="M754 442q-121 -272 -342 -323q-27 -6 -54 -6q-117 0 -235 127q-80 86 -80 223q0 152 90 325q39 74 84 119l-10 2q-27 6 -27 31q0 18 23 66q51 102 153 251q141 205 170 250q12 18 35 19q33 0 67 -32t31 -62q-6 -117 -106 -246q-92 -104 -184 -209q25 -8 39 -21 q31 -25 155 -67q98 -33 139 -111q72 -137 72 -235q0 -56 -20 -101zM590 569q-14 150 -80 179q-10 4 -18 4q-25 0 -62 -41q-41 -47 -63 -56q-14 -6 -41 12.5t-35 18.5q-6 0 -10 -4q-72 -61 -72 -190q0 -88 41 -150q57 -84 96 -84q90 0 174 113q80 106 70 198z" />
<glyph unicode="&#xd4;" horiz-adv-x="786" d="M754 442q-121 -272 -342 -323q-27 -6 -54 -6q-117 0 -235 127q-80 86 -80 223q0 152 90 325q39 74 94 127q63 63 121 64q33 0 61.5 -24.5t153.5 -65.5q98 -33 139 -111q72 -137 72 -235q0 -56 -20 -101zM590 569q-14 150 -80 179q-10 4 -18 4q-25 0 -62 -41 q-41 -47 -63 -56q-14 -6 -41 12.5t-35 18.5q-6 0 -10 -4q-72 -61 -72 -190q0 -88 41 -150q57 -84 96 -84q90 0 174 113q80 106 70 198z" />
<glyph unicode="&#xd5;" horiz-adv-x="786" d="M754 442q-121 -272 -342 -323q-27 -6 -54 -6q-117 0 -235 127q-80 86 -80 223q0 152 90 325q39 74 94 127q63 63 121 64q33 0 61.5 -24.5t153.5 -65.5q98 -33 139 -111q72 -137 72 -235q0 -56 -20 -101zM590 569q-14 150 -80 179q-10 4 -18 4q-25 0 -62 -41 q-41 -47 -63 -56q-14 -6 -41 12.5t-35 18.5q-6 0 -10 -4q-72 -61 -72 -190q0 -88 41 -150q57 -84 96 -84q90 0 174 113q80 106 70 198z" />
<glyph unicode="&#xd6;" horiz-adv-x="786" d="M670 1309q18 -74 -8.5 -100.5t-73.5 -22.5q-41 2 -78 36.5t-37 73.5q0 25 20.5 47.5t43.5 20.5q39 -2 77 -6q46 -10 56 -49zM326 1309q18 -74 -8.5 -100.5t-73.5 -22.5q-39 2 -76 36.5t-37 73.5q0 25 20.5 47.5t43.5 20.5q78 -6 77 -6q44 -10 54 -49zM754 442 q-121 -272 -342 -323q-27 -6 -54 -6q-117 0 -235 127q-80 86 -80 223q0 152 90 325q39 74 94 127q63 63 121 64q33 0 61.5 -24.5t153.5 -65.5q98 -33 139 -111q72 -137 72 -235q0 -56 -20 -101zM590 569q-14 150 -80 179q-10 4 -18 4q-25 0 -62 -41q-41 -47 -63 -56 q-14 -6 -41 12.5t-35 18.5q-6 0 -10 -4q-72 -61 -72 -190q0 -88 41 -150q57 -84 96 -84q90 0 174 113q80 106 70 198z" />
<glyph unicode="&#xd7;" />
<glyph unicode="&#xd8;" horiz-adv-x="786" d="M754 442q-121 -274 -342 -323q-68 -14 -133 8q-29 -86 -54 -141q-6 -14 -16 -15q-6 0 -18.5 7.5t-14.5 7.5q-33 10 -31 41q2 55 45 151q-35 27 -67 62q-80 86 -80 223q0 152 90 325q39 74 94 127q63 63 121 64q33 0 60 -23q35 -31 112 -55q82 160 148 299q6 14 22 14 q51 0 58 -63q2 -27 -9 -47l-123 -240q57 -33 86 -86q72 -137 72 -235q0 -56 -20 -101zM590 569q-10 106 -45 150q-131 -262 -211 -459q14 -4 28 0q92 25 165 118t63 191zM418 696q-27 -31 -51 -41q-14 -6 -41 12.5t-35 18.5q-6 0 -10 -4q-72 -61 -72 -190q0 -88 41 -150 l4 -6q58 145 164 360z" />
<glyph unicode="&#xd9;" horiz-adv-x="796" d="M795 1116q-14 -143 -82 -383q-92 -322 -107 -389q-45 -207 -172 -377q-80 -109 -184 -106q-92 2 -137 116q-78 193 -78 453q0 150 28 385q-2 -20 -2 127q0 127 99 127q20 0 43.5 -11t46.5 -24q2 -104 -6 -307q-10 -217 -11 -313q0 -102 7 -187q4 -43 36 -164 q86 96 136 256q16 53 65 291q39 180 88 283q16 33 23 92q-109 49 -207 193q-76 125 -154 247q-25 39 -6 72q12 20 35 21q10 0 78 -31q35 -16 65 -68q23 -45 44.5 -87t172.5 -218q23 47 78 47q70 0 101 -45z" />
<glyph unicode="&#xda;" horiz-adv-x="796" d="M705 1440q-8 -127 -85 -224.5t-157 -189.5q-35 -45 -127 -27q-29 6 -29 33q0 18 23 64q76 152 241 420q12 18 35 18q33 0 67 -31.5t32 -62.5zM795 1116q-14 -143 -82 -383q-92 -322 -107 -389q-45 -207 -172 -377q-80 -109 -184 -106q-92 2 -137 116q-78 193 -78 453 q0 150 28 385q-2 -20 -2 127q0 127 99 127q20 0 43.5 -11t46.5 -24q2 -104 -6 -307q-10 -217 -11 -313q0 -102 7 -187q4 -43 36 -164q86 96 136 256q16 53 65 291q39 180 88 283q14 29 24.5 108.5t24.5 110.5q23 49 78 49q72 0 103 -45z" />
<glyph unicode="&#xdb;" horiz-adv-x="796" d="M795 1116q-14 -143 -82 -383q-92 -322 -107 -389q-45 -207 -172 -377q-80 -109 -184 -106q-92 2 -137 116q-78 193 -78 453q0 150 28 385q-2 -20 -2 127q0 127 99 127q20 0 43.5 -11t46.5 -24q2 -104 -6 -307q-10 -217 -11 -313q0 -102 7 -187q4 -43 36 -164 q86 96 136 256q16 53 65 291q39 180 88 283q14 29 24.5 108.5t24.5 110.5q23 49 78 49q72 0 103 -45z" />
<glyph unicode="&#xdc;" horiz-adv-x="796" d="M694 1401q18 -74 -8.5 -100.5t-73.5 -22.5q-39 2 -75.5 37t-36.5 74q0 25 20.5 47t42.5 20l78 -6q43 -10 53 -49zM352 1401q18 -74 -8.5 -100.5t-73.5 -22.5q-41 2 -77.5 37t-36.5 74q0 25 20.5 47t42.5 20q39 -2 78 -6q45 -10 55 -49zM795 1116q-14 -143 -82 -383 q-92 -322 -107 -389q-45 -207 -172 -377q-80 -109 -184 -106q-92 2 -137 116q-78 193 -78 453q0 150 28 385q-2 -20 -2 127q0 127 99 127q20 0 43.5 -11t46.5 -24q2 -104 -6 -307q-10 -217 -11 -313q0 -102 7 -187q4 -43 36 -164q86 96 136 256q16 53 65 291q39 180 88 283 q14 29 24.5 108.5t24.5 110.5q23 49 78 49q72 0 103 -45z" />
<glyph unicode="&#xdd;" horiz-adv-x="745" d="M725 1212q-57 -231 -211 -602q-180 -432 -231 -596q-10 -33 -11 -82q2 -68 0 -86q-6 -72 -75 -71q-35 -4 -75 23.5t-38 58.5q6 150 76 342q63 164 127 327q-145 389 -248 570q-6 10 -6 20q0 23 25.5 42.5t50.5 19.5q4 0 77 -23q4 -4 9.5 -12t7.5 -13q90 131 268 402 q12 18 35 18q33 0 66.5 -31.5t31.5 -62.5q-8 -123 -121 -264q-98 -113 -196 -223q33 -74 98 -224q41 123 82 244q47 141 104 234q16 29 58 28q57 0 96 -39z" />
<glyph unicode="&#xde;" />
<glyph unicode="&#xdf;" />
<glyph unicode="&#xe0;" horiz-adv-x="811" d="M795 98q12 -33 12 -57q0 -41 -35 -71.5t-47 -28.5q-100 18 -127 161q-29 156 -68 260q-70 -6 -139 -12q-80 -10 -125 -49q-23 -63 -59 -225q-35 -150 -68 -228q-16 -37 -69 -20q-68 23 -72 61q-6 78 45 209q61 150 68 213q2 18 -27 41t-29 35q0 10 9.5 21.5t43 18.5 t37.5 22q33 96 113 374q68 238 121 367q-53 88 -160 256q-25 37 -6 72q12 20 35 20q10 0 78 -31q35 -16 65 -67q23 -45 45 -90q33 -59 139 -179q98 -109 125 -172q6 -14 -7 -19t-34 -1q-41 8 -92 33q42 -379 228 -914zM496 489q-6 76 -27 170q-20 82 -39 164 q-61 -170 -106 -340q33 6 172 6z" />
<glyph unicode="&#xe1;" horiz-adv-x="811" d="M795 98q12 -33 12 -57q0 -41 -35 -71.5t-47 -28.5q-100 18 -127 161q-29 156 -68 260q-70 -6 -139 -12q-80 -10 -125 -49q-23 -63 -59 -225q-35 -150 -68 -228q-16 -37 -69 -20q-68 23 -72 61q-6 78 45 209q61 150 68 213q2 18 -27 41t-29 35q0 10 9.5 21.5t43 18.5 t37.5 22q55 186 168 552q-10 -12 -32 -38q-33 -45 -127 -27q-29 6 -29 33q0 20 22 65q51 102 156 252q139 201 170 250q12 18 35 18q33 0 65.5 -31.5t30.5 -62.5q-8 -123 -112 -256q51 -51 67 -145q12 -82 23 -164q104 -488 213 -797zM496 489q-6 76 -27 170q-20 82 -39 164 q-61 -170 -106 -340q33 6 172 6z" />
<glyph unicode="&#xe2;" horiz-adv-x="811" d="M786 1206q20 -27 21 -49q0 -25 -27 -33q-82 -25 -121 0q-55 35 -110 109q-76 104 -92 121q-63 -51 -189 -215q-111 -145 -198 -197q-8 -4 -19 -4q-31 0 -54.5 29.5t-23.5 62.5q0 41 39 86q31 35 64 70q70 90 139 180q82 98 160 150q16 10 39 10q29 0 88 -25 q82 -35 162 -131zM795 98q12 -33 12 -57q0 -41 -35 -71.5t-47 -28.5q-100 18 -127 161q-29 156 -68 260q-70 -6 -139 -12q-80 -10 -125 -49q-23 -63 -59 -225q-35 -150 -68 -228q-16 -37 -69 -20q-68 23 -72 61q-6 78 45 209q61 150 68 213q2 18 -27 41t-29 35 q0 10 9.5 21.5t43 18.5t37.5 22q37 102 117 380q68 242 121 371q12 29 51 29q29 0 51 -19q57 -49 74 -147q12 -84 23 -168q102 -484 213 -797zM496 489q-6 76 -27 170q-20 82 -39 164q-61 -170 -106 -340q33 6 172 6z" />
<glyph unicode="&#xe3;" horiz-adv-x="811" d="M795 98q12 -33 12 -57q0 -41 -35 -71.5t-47 -28.5q-100 18 -127 161q-29 156 -68 260q-70 -6 -139 -12q-80 -10 -125 -49q-23 -63 -59 -225q-35 -150 -68 -228q-16 -37 -69 -20q-68 23 -72 61q-6 78 45 209q61 150 68 213q2 18 -27 41t-29 35q0 10 9.5 21.5t43 18.5 t37.5 22q37 102 117 380q68 242 121 371q12 29 51 29q29 0 51 -19q57 -49 74 -147q12 -84 23 -168q102 -484 213 -797zM496 489q-6 76 -27 170q-20 82 -39 164q-61 -170 -106 -340q33 6 172 6z" />
<glyph unicode="&#xe4;" horiz-adv-x="811" d="M739 1434q18 -74 -8 -100.5t-74 -22.5q-41 2 -77.5 36.5t-36.5 73.5q0 25 20.5 47.5t42.5 20.5q39 -2 78 -6q45 -10 55 -49zM395 1434q18 -74 -8.5 -100.5t-73.5 -22.5q-39 2 -75.5 36.5t-36.5 73.5q0 25 20.5 47.5t42.5 20.5l78 -6q43 -10 53 -49zM795 98q12 -33 12 -57 q0 -41 -35 -71.5t-47 -28.5q-100 18 -127 161q-29 156 -68 260q-70 -6 -139 -12q-80 -10 -125 -49q-23 -63 -59 -225q-35 -150 -68 -228q-16 -37 -69 -20q-68 23 -72 61q-6 78 45 209q61 150 68 213q2 18 -27 41t-29 35q0 10 9.5 21.5t43 18.5t37.5 22q37 102 117 380 q68 242 121 371q12 29 51 29q29 0 51 -19q57 -49 74 -147q12 -84 23 -168q102 -484 213 -797zM496 489q-6 76 -27 170q-20 82 -39 164q-61 -170 -106 -340q33 6 172 6z" />
<glyph unicode="&#xe5;" horiz-adv-x="811" d="M795 98q12 -33 12 -57q0 -41 -35 -71.5t-47 -28.5q-100 18 -127 161q-29 156 -68 260q-70 -6 -139 -12q-80 -10 -125 -49q-23 -63 -59 -225q-35 -150 -68 -228q-16 -37 -69 -20q-68 23 -72 61q-6 78 45 209q61 150 68 213q2 18 -27 41t-29 35q0 10 9.5 21.5t43 18.5 t37.5 22q37 102 117 380q68 242 121 371q12 29 51 29q29 0 51 -19q57 -49 74 -147q12 -84 23 -168q102 -484 213 -797zM496 489q-6 76 -27 170q-20 82 -39 164q-61 -170 -106 -340q33 6 172 6z" />
<glyph unicode="&#xe6;" />
<glyph unicode="&#xe7;" horiz-adv-x="530" d="M356 -168q-29 -150 -47 -221q-33 -123 -73 -213q-10 -20 -41 -21q-29 0 -63 16.5t-34 55.5q0 23 15 59l20 58q47 164 53 188q27 109 35 193q0 6 8 26q-14 20 -51 80q-29 47 -58.5 97.5t-43.5 95.5q-10 33 -35 264q-8 72 -8 139q0 362 211 617q123 147 256 147 q57 0 104 -35q14 -10 14 -45q0 -55 -73 -69q-96 -18 -119 -43q-229 -242 -229 -625q0 -180 57 -340q47 -131 68 -172q51 -100 124 -143q31 -14 62 -27q33 -18 33 -51t-21.5 -59.5t-46.5 -20.5q-27 6 -82 27q-6 4 -35 22z" />
<glyph unicode="&#xe8;" horiz-adv-x="749" d="M762 1024q-39 -16 -117 -41q2 -12 -12 -16t-31 0l-6 2q-92 -25 -281 -88q-18 -53 -26 -238q33 -12 76 -12q31 0 96 10t96 10q57 0 98 -24q29 -41 29 -54q0 -14 -14 -22q-4 -2 -29 -29q-16 -18 -41 -16q-43 -10 -158 -12q-96 -2 -153 -25q-39 -152 -39 -240q0 -59 16 -94 q96 -68 334 -57q16 0 34.5 15.5t31.5 15.5q57 12 75 -86q6 -33 -11 -61t-50 -30q-248 -8 -430 39q-57 14 -104.5 63.5t-53.5 110.5q-18 178 0 320q-57 39 -51 76q2 18 31.5 33.5t34 32t16.5 194.5q-115 23 -113 86q2 59 72 94q66 27 131 53q76 37 170 64q-51 57 -117 166 q-92 152 -104 170q-25 37 -6 71q12 20 34 21q10 0 78 -31q35 -16 66 -68q23 -45 47.5 -91t155.5 -197q72 18 92 18q55 0 129 -43q2 -8 10 -30.5t8 -32.5q0 -17 -14 -27z" />
<glyph unicode="&#xe9;" horiz-adv-x="749" d="M762 1024q-76 -31 -223.5 -72t-223.5 -71q-18 -53 -26 -238q33 -12 76 -12q31 0 96 10t96 10q57 0 98 -24q29 -41 29 -54q0 -14 -14 -22q-4 -2 -29 -29q-16 -18 -41 -16q-43 -10 -158 -12q-96 -2 -153 -25q-39 -152 -39 -240q0 -59 16 -94q96 -68 334 -57q16 0 34.5 15.5 t31.5 15.5q57 12 75 -86q6 -33 -11 -61t-50 -30q-248 -8 -430 39q-57 14 -104.5 63.5t-53.5 110.5q-18 178 0 320q-57 39 -51 76q2 18 31.5 33.5t34 32t16.5 194.5q-115 23 -113 86q2 55 58 86q12 8 110 45q51 98 152 244q133 193 166 243q12 18 34 19q33 0 66 -32t31 -62 q-8 -141 -156 -308q131 35 158 35q55 0 129 -43q2 -8 10 -30.5t8 -32.5q0 -17 -14 -27z" />
<glyph unicode="&#xea;" horiz-adv-x="749" d="M813 1202q23 -29 23 -51q0 -25 -27 -31q-16 -4 -51 -12q18 -61 18 -57q0 -14 -14 -27q-76 -31 -223.5 -72t-223.5 -71q-18 -53 -26 -238q33 -12 76 -12q31 0 96 10t96 10q57 0 98 -24q29 -41 29 -54q0 -14 -14 -22q-4 -2 -29 -29q-16 -18 -41 -16q-43 -10 -158 -12 q-96 -2 -153 -25q-39 -152 -39 -240q0 -59 16 -94q96 -68 334 -57q16 0 34.5 15.5t31.5 15.5q57 12 75 -86q6 -33 -11 -61t-50 -30q-248 -8 -430 39q-57 14 -104.5 63.5t-53.5 110.5q-18 178 0 320q-57 39 -51 76q2 18 31.5 33.5t34 32t16.5 194.5q-115 23 -113 86 q0 35 29 63q-37 31 -37 76q0 41 37 86q33 35 63 70l140 180q82 98 159 149q16 10 39 11q29 0 88 -25q82 -35 162 -131q62 -82 123 -164zM637 1157q-33 31 -78 94q-51 72 -76 99q-61 -49 -141 -154q-98 -131 -129 -164v2q84 41 391 121q8 2 33 2z" />
<glyph unicode="&#xeb;" horiz-adv-x="749" d="M733 1425q18 -74 -8.5 -100.5t-73.5 -21.5q-41 2 -77.5 36.5t-36.5 73.5q0 25 20.5 47.5t42.5 20.5q39 -2 78 -6q45 -11 55 -50zM389 1425q18 -74 -8.5 -100.5t-73.5 -21.5q-39 2 -75.5 36.5t-36.5 73.5q0 25 20.5 47.5t42.5 20.5l78 -6q43 -11 53 -50zM762 1024 q-76 -31 -223.5 -72t-223.5 -71q-18 -53 -26 -238q33 -12 76 -12q31 0 96 10t96 10q57 0 98 -24q29 -41 29 -54q0 -14 -14 -22q-4 -2 -29 -29q-16 -18 -41 -16q-43 -10 -158 -12q-96 -2 -153 -25q-39 -152 -39 -240q0 -59 16 -94q96 -68 334 -57q16 0 34.5 15.5t31.5 15.5 q57 12 75 -86q6 -33 -11 -61t-50 -30q-248 -8 -430 39q-57 14 -104.5 63.5t-53.5 110.5q-18 178 0 320q-57 39 -51 76q2 18 31.5 33.5t34 32t16.5 194.5q-115 23 -113 86q2 59 72 94q66 27 131 53q78 39 193 70q98 27 198 51q10 2 25 2q55 0 129 -43q2 -8 10 -30.5t8 -32.5 q0 -17 -14 -27z" />
<glyph unicode="&#xec;" horiz-adv-x="348" d="M438 1116q6 -14 -8 -20q-14 -4 -33 0q-145 29 -217 129q-68 113 -135 227q-25 37 -6 72q12 20 35 20q10 0 78 -31q35 -16 65 -67q23 -45 45 -90q33 -59 94 -123q55 -54 82 -117zM291 1036q4 -59 4 -123q0 -139 -28.5 -419.5t-28.5 -423.5q0 -53 2 -105q-18 -57 -80 -55 q-88 4 -96.5 75.5t-8.5 151.5q0 139 34 415.5t34 414.5q0 53 -4 104q20 39 69 39q39 0 78 -23q8 6 13 7q6 0 6 -21q-2 -25 0 -29q2 -6 6 -8z" />
<glyph unicode="&#xed;" horiz-adv-x="348" d="M412 1460q-10 -147 -197 -354q31 -6 51 -19q8 6 13 7q6 0 6 -21q-2 -25 0 -29q2 -6 6 -8q4 -59 4 -123q0 -139 -28.5 -419.5t-28.5 -423.5q0 -53 2 -105q-18 -57 -80 -55q-88 4 -96.5 75.5t-8.5 151.5q0 139 35 434q35 283 31 433q-20 -23 -33 -41q-33 -45 -127 -27 q-29 6 -29 33q0 20 23 65q51 102 156 252q139 201 170 250q12 18 34 18q33 0 66 -31.5t31 -62.5z" />
<glyph unicode="&#xee;" horiz-adv-x="348" d="M547 1208q20 -27 20 -49q0 -23 -26 -31q-82 -25 -121 0q-55 35 -111 107q-82 106 -94 121q-63 -51 -186 -215q-111 -145 -199 -197q-8 -4 -18 -4q-31 0 -54.5 29.5t-23.5 62.5q0 41 37 86q33 35 63 70q70 90 141 180q82 100 160 152q14 10 37 10q27 0 90 -27 q82 -35 162 -131q62 -82 123 -164zM291 1036q4 -59 4 -123q0 -139 -28.5 -419.5t-28.5 -423.5q0 -53 2 -105q-18 -57 -80 -55q-88 4 -96.5 75.5t-8.5 151.5q0 139 34 415.5t34 414.5q0 53 -4 104q20 39 69 39q39 0 78 -23q8 6 13 7q6 0 6 -21q-2 -25 0 -29q2 -6 6 -8z" />
<glyph unicode="&#xef;" horiz-adv-x="348" d="M467 1413q18 -72 -8.5 -98.5t-73.5 -22.5q-39 2 -76 37t-37 74q0 25 20.5 46t43.5 19l78 -6q43 -10 53 -49zM125 1413q18 -72 -8.5 -98.5t-73.5 -22.5q-41 2 -78 37t-37 74q0 25 20.5 46t43.5 19q39 -2 78 -6q45 -10 55 -49zM291 1036q4 -59 4 -123q0 -139 -28.5 -419.5 t-28.5 -423.5q0 -53 2 -105q-18 -57 -80 -55q-88 4 -96.5 75.5t-8.5 151.5q0 139 34 415.5t34 414.5q0 53 -4 104q20 39 69 39q39 0 78 -23q8 6 13 7q6 0 6 -21q-2 -25 0 -29q2 -6 6 -8z" />
<glyph unicode="&#xf0;" />
<glyph unicode="&#xf1;" horiz-adv-x="972" d="M926 1241q-29 -274 -56 -551q-35 -328 -34 -547q0 -72 4 -141q2 -33 -23.5 -57.5t-58.5 -24.5q-63 0 -107 86q-131 256 -325 803q-4 12 -11 12q-14 0 -18 -28q-35 -293 -35 -617q0 -156 8 -317q2 -59 -34 -82q-14 -14 -31 -15q-14 0 -37 13q-31 14 -39 18q-27 8 -33 49 q-2 33 -4 68q-6 115 -6 240q0 217 25 542q39 496 43 549q2 45 75 45q35 4 103 -51q66 -125 162 -406q92 -268 168 -407q31 272 96 823q6 41 59 41q18 0 43 -6q33 -8 39 -10q21 -9 27 -29z" />
<glyph unicode="&#xf2;" horiz-adv-x="786" d="M741 985q6 -14 -8 -20q-14 -4 -33 0q-145 29 -262 184q-90 141 -180 283q-25 37 -4 71q12 20 35 21q8 0 76 -31q35 -16 65 -68q25 -45 47 -90q33 -59 139 -178q98 -109 125 -172zM754 442q-121 -272 -342 -323q-27 -6 -54 -6q-117 0 -235 127q-80 86 -80 223 q0 152 90 325q39 74 94 127q63 63 121 64q33 0 61.5 -24.5t153.5 -65.5q98 -33 139 -111q72 -137 72 -235q0 -56 -20 -101zM590 569q-14 150 -80 179q-10 4 -18 4q-25 0 -62 -41q-41 -47 -63 -56q-14 -6 -41 12.5t-35 18.5q-6 0 -10 -4q-72 -61 -72 -190q0 -88 41 -150 q57 -84 96 -84q90 0 174 113q80 106 70 198z" />
<glyph unicode="&#xf3;" horiz-adv-x="786" d="M754 442q-121 -272 -342 -323q-27 -6 -54 -6q-117 0 -235 127q-80 86 -80 223q0 152 90 325q39 74 84 119l-10 2q-27 6 -27 31q0 18 23 66q51 102 153 251q141 205 170 250q12 18 35 19q33 0 67 -32t31 -62q-6 -117 -106 -246q-92 -104 -184 -209q25 -8 39 -21 q31 -25 155 -67q98 -33 139 -111q72 -137 72 -235q0 -56 -20 -101zM590 569q-14 150 -80 179q-10 4 -18 4q-25 0 -62 -41q-41 -47 -63 -56q-14 -6 -41 12.5t-35 18.5q-6 0 -10 -4q-72 -61 -72 -190q0 -88 41 -150q57 -84 96 -84q90 0 174 113q80 106 70 198z" />
<glyph unicode="&#xf4;" horiz-adv-x="786" d="M768 1200q23 -29 23 -51q0 -23 -27 -31q-84 -25 -123 0q-55 35 -111 109q-76 104 -92 121q-63 -51 -186 -215q-111 -145 -199 -197q-8 -4 -18 -4q-31 0 -54.5 29.5t-23.5 62.5q0 41 37 86q33 35 63 70l140 180q82 98 159 149q16 10 39 11q29 0 88 -25q82 -35 162 -131 q62 -82 123 -164zM754 442q-121 -272 -342 -323q-27 -6 -54 -6q-117 0 -235 127q-80 86 -80 223q0 152 90 325q39 74 94 127q63 63 121 64q33 0 61.5 -24.5t153.5 -65.5q98 -33 139 -111q72 -137 72 -235q0 -56 -20 -101zM590 569q-14 150 -80 179q-10 4 -18 4 q-25 0 -62 -41q-41 -47 -63 -56q-14 -6 -41 12.5t-35 18.5q-6 0 -10 -4q-72 -61 -72 -190q0 -88 41 -150q57 -84 96 -84q90 0 174 113q80 106 70 198z" />
<glyph unicode="&#xf5;" horiz-adv-x="786" d="M754 442q-121 -272 -342 -323q-27 -6 -54 -6q-117 0 -235 127q-80 86 -80 223q0 152 90 325q39 74 94 127q63 63 121 64q33 0 61.5 -24.5t153.5 -65.5q98 -33 139 -111q72 -137 72 -235q0 -56 -20 -101zM590 569q-14 150 -80 179q-10 4 -18 4q-25 0 -62 -41 q-41 -47 -63 -56q-14 -6 -41 12.5t-35 18.5q-6 0 -10 -4q-72 -61 -72 -190q0 -88 41 -150q57 -84 96 -84q90 0 174 113q80 106 70 198z" />
<glyph unicode="&#xf6;" horiz-adv-x="786" d="M670 1309q18 -74 -8.5 -100.5t-73.5 -22.5q-41 2 -78 36.5t-37 73.5q0 25 20.5 47.5t43.5 20.5q39 -2 77 -6q46 -10 56 -49zM326 1309q18 -74 -8.5 -100.5t-73.5 -22.5q-39 2 -76 36.5t-37 73.5q0 25 20.5 47.5t43.5 20.5q78 -6 77 -6q44 -10 54 -49zM754 442 q-121 -272 -342 -323q-27 -6 -54 -6q-117 0 -235 127q-80 86 -80 223q0 152 90 325q39 74 94 127q63 63 121 64q33 0 61.5 -24.5t153.5 -65.5q98 -33 139 -111q72 -137 72 -235q0 -56 -20 -101zM590 569q-14 150 -80 179q-10 4 -18 4q-25 0 -62 -41q-41 -47 -63 -56 q-14 -6 -41 12.5t-35 18.5q-6 0 -10 -4q-72 -61 -72 -190q0 -88 41 -150q57 -84 96 -84q90 0 174 113q80 106 70 198z" />
<glyph unicode="&#xf7;" />
<glyph unicode="&#xf8;" />
<glyph unicode="&#xf9;" horiz-adv-x="796" d="M795 1116q-14 -143 -82 -383q-92 -322 -107 -389q-45 -207 -172 -377q-80 -109 -184 -106q-92 2 -137 116q-78 193 -78 453q0 150 28 385q-2 -20 -2 127q0 127 99 127q20 0 43.5 -11t46.5 -24q2 -104 -6 -307q-10 -217 -11 -313q0 -102 7 -187q4 -43 36 -164 q86 96 136 256q16 53 65 291q39 180 88 283q16 33 23 92q-109 49 -207 193q-76 125 -154 247q-25 39 -6 72q12 20 35 21q10 0 78 -31q35 -16 65 -68q23 -45 44.5 -87t172.5 -218q23 47 78 47q70 0 101 -45z" />
<glyph unicode="&#xfa;" horiz-adv-x="796" d="M705 1440q-8 -127 -85 -224.5t-157 -189.5q-35 -45 -127 -27q-29 6 -29 33q0 18 23 64q76 152 241 420q12 18 35 18q33 0 67 -31.5t32 -62.5zM795 1116q-14 -143 -82 -383q-92 -322 -107 -389q-45 -207 -172 -377q-80 -109 -184 -106q-92 2 -137 116q-78 193 -78 453 q0 150 28 385q-2 -20 -2 127q0 127 99 127q20 0 43.5 -11t46.5 -24q2 -104 -6 -307q-10 -217 -11 -313q0 -102 7 -187q4 -43 36 -164q86 96 136 256q16 53 65 291q39 180 88 283q14 29 24.5 108.5t24.5 110.5q23 49 78 49q72 0 103 -45z" />
<glyph unicode="&#xfb;" horiz-adv-x="796" d="M795 1116q-14 -143 -82 -383q-92 -322 -107 -389q-45 -207 -172 -377q-80 -109 -184 -106q-92 2 -137 116q-78 193 -78 453q0 150 28 385q-2 -16 -2 137l-8 -4q-8 -4 -18 -4q-33 0 -55.5 28.5t-22.5 61.5q0 43 37 88q33 35 63 70q70 90 142 180q82 98 159 150 q14 10 37 10q27 0 90 -27q82 -35 162 -131q59 -80 121 -162q23 -29 23 -51q0 -16 -15 -24q13 -13 19 -21zM631 1137q-51 33 -103 106q-76 100 -90 117q-59 -47 -131 -141q-111 -141 -121 -154q20 -10 64 -31q2 -104 -6 -307q-10 -217 -11 -313q0 -102 7 -187q4 -43 36 -164 q86 96 136 256q16 53 65 291q39 180 88 283q12 27 27 127q12 88 39 117z" />
<glyph unicode="&#xfc;" horiz-adv-x="796" d="M694 1401q18 -74 -8.5 -100.5t-73.5 -22.5q-39 2 -75.5 37t-36.5 74q0 25 20.5 47t42.5 20l78 -6q43 -10 53 -49zM352 1401q18 -74 -8.5 -100.5t-73.5 -22.5q-41 2 -77.5 37t-36.5 74q0 25 20.5 47t42.5 20q39 -2 78 -6q45 -10 55 -49zM795 1116q-14 -143 -82 -383 q-92 -322 -107 -389q-45 -207 -172 -377q-80 -109 -184 -106q-92 2 -137 116q-78 193 -78 453q0 150 28 385q-2 -20 -2 127q0 127 99 127q20 0 43.5 -11t46.5 -24q2 -104 -6 -307q-10 -217 -11 -313q0 -102 7 -187q4 -43 36 -164q86 96 136 256q16 53 65 291q39 180 88 283 q14 29 24.5 108.5t24.5 110.5q23 49 78 49q72 0 103 -45z" />
<glyph unicode="&#xfd;" horiz-adv-x="745" d="M725 1212q-57 -231 -211 -602q-180 -432 -231 -596q-10 -33 -11 -82q2 -68 0 -86q-6 -72 -75 -71q-35 -4 -75 23.5t-38 58.5q6 150 76 342q63 164 127 327q-145 389 -248 570q-6 10 -6 20q0 23 25.5 42.5t50.5 19.5q4 0 77 -23q4 -4 9.5 -12t7.5 -13q90 131 268 402 q12 18 35 18q33 0 66.5 -31.5t31.5 -62.5q-8 -123 -121 -264q-98 -113 -196 -223q33 -74 98 -224q41 123 82 244q47 141 104 234q16 29 58 28q57 0 96 -39z" />
<glyph unicode="&#xfe;" />
<glyph unicode="&#xff;" horiz-adv-x="745" d="M725 1212q-57 -231 -211 -602q-180 -432 -231 -596q-10 -33 -11 -82q2 -68 0 -86q-6 -72 -75 -71q-35 -4 -75 23.5t-38 58.5q6 150 76 342q63 164 127 327q-145 389 -248 570q-6 10 -6 20q0 23 25.5 42.5t50.5 19.5q4 0 77 -23q51 -78 107 -201q47 -104 92 -209 q41 123 82 244q47 141 104 234q16 29 58 28q57 0 96 -39z" />
<glyph unicode="&#x152;" horiz-adv-x="1312" d="M1397 131q-2 -29 -6.5 -61.5t-34.5 -40.5q-121 -35 -289 -41q-147 -2 -295 -4h-45q-23 0 -69 -4.5t-68 -4.5q-70 0 -127 29q-86 -25 -123 -20q-78 10 -138.5 67.5t-84.5 138.5q-33 111 -33 228q0 270 170 555q39 63 82 63q6 0 21.5 -3t23.5 -3q27 0 70 15.5t61 15.5 q14 0 27 -6q51 -20 107 -45t75 -78q20 2 49 20q39 20 53 27q63 14 193 49q23 6 47 6q49 0 90 -30q29 -23 29 -58q0 -23 -13.5 -44t-31 -24.5t-35.5 -5.5q-66 -12 -141 -41q-106 -41 -127 -47q-20 -14 -68 -45q-8 -66 -4 -192q117 4 336 14q16 2 51 -15.5t45 -19.5 q51 -12 51 -63q0 -27 -12 -43q-18 -27 -74 -27q-25 0 -71 6.5t-58 6.5q-74 0 -203 -17q-2 0 -63 -6q-41 -4 -53 -25q-61 -96 -107 -217q88 -8 162 0q31 4 70 4q33 0 100.5 -3t101.5 -3q113 0 176 27q8 4 20.5 18.5t29.5 12.5q6 0 92 -35q45 -19 41 -31zM584 750 q-2 16 -16.5 44.5t-14.5 47.5q0 6 9 12t7 18q-6 41 -30 41q-10 0 -31 -10q-27 -14 -31 -16q-37 -12 -76 -45q-70 -59 -100 -193q-18 -119 -37 -235q-10 -68 -10 -129q0 -145 63 -146q8 0 19 2q125 33 192 193q59 137 60 323q0 48 -4 93z" />
<glyph unicode="&#x153;" horiz-adv-x="1312" d="M1397 131q-2 -29 -6.5 -61.5t-34.5 -40.5q-121 -35 -289 -41q-147 -2 -295 -4h-45q-23 0 -69 -4.5t-68 -4.5q-70 0 -127 29q-86 -25 -123 -20q-78 10 -138.5 67.5t-84.5 138.5q-33 111 -33 228q0 270 170 555q39 63 82 63q6 0 21.5 -3t23.5 -3q27 0 70 15.5t61 15.5 q14 0 27 -6q51 -20 107 -45t75 -78q20 2 49 20q39 20 53 27q63 14 193 49q23 6 47 6q49 0 90 -30q29 -23 29 -58q0 -23 -13.5 -44t-31 -24.5t-35.5 -5.5q-66 -12 -141 -41q-106 -41 -127 -47q-20 -14 -68 -45q-8 -66 -4 -192q117 4 336 14q16 2 51 -15.5t45 -19.5 q51 -12 51 -63q0 -27 -12 -43q-18 -27 -74 -27q-25 0 -71 6.5t-58 6.5q-74 0 -203 -17q-2 0 -63 -6q-41 -4 -53 -25q-61 -96 -107 -217q88 -8 162 0q31 4 70 4q33 0 100.5 -3t101.5 -3q113 0 176 27q8 4 20.5 18.5t29.5 12.5q6 0 92 -35q45 -19 41 -31zM584 750 q-2 16 -16.5 44.5t-14.5 47.5q0 6 9 12t7 18q-6 41 -30 41q-10 0 -31 -10q-27 -14 -31 -16q-37 -12 -76 -45q-70 -59 -100 -193q-18 -119 -37 -235q-10 -68 -10 -129q0 -145 63 -146q8 0 19 2q125 33 192 193q59 137 60 323q0 48 -4 93z" />
<glyph unicode="&#x178;" horiz-adv-x="745" d="M725 1212q-57 -231 -211 -602q-180 -432 -231 -596q-10 -33 -11 -82q2 -68 0 -86q-6 -72 -75 -71q-35 -4 -75 23.5t-38 58.5q6 150 76 342q63 164 127 327q-145 389 -248 570q-6 10 -6 20q0 23 25.5 42.5t50.5 19.5q4 0 77 -23q51 -78 107 -201q47 -104 92 -209 q41 123 82 244q47 141 104 234q16 29 58 28q57 0 96 -39z" />
<glyph unicode="&#x2c6;" horiz-adv-x="1038" d="M954 1157q20 -27 21 -49q0 -23 -27 -31q-82 -25 -121 0q-55 35 -110 107q-82 106 -94 121q-63 -51 -187 -215q-111 -145 -198 -197q-8 -4 -19 -4q-31 0 -54.5 29.5t-23.5 62.5q0 41 37 86q33 35 64 70q70 90 141 180q82 100 160 151q14 10 37 11q27 0 90 -27 q82 -35 161 -131q62 -82 123 -164z" />
<glyph unicode="&#x2dc;" />
<glyph unicode="&#x2000;" horiz-adv-x="777" />
<glyph unicode="&#x2001;" horiz-adv-x="1554" />
<glyph unicode="&#x2002;" horiz-adv-x="777" />
<glyph unicode="&#x2003;" horiz-adv-x="1554" />
<glyph unicode="&#x2004;" horiz-adv-x="518" />
<glyph unicode="&#x2005;" horiz-adv-x="388" />
<glyph unicode="&#x2006;" horiz-adv-x="259" />
<glyph unicode="&#x2007;" horiz-adv-x="259" />
<glyph unicode="&#x2008;" horiz-adv-x="194" />
<glyph unicode="&#x2009;" horiz-adv-x="310" />
<glyph unicode="&#x200a;" horiz-adv-x="86" />
<glyph unicode="&#x2010;" horiz-adv-x="937" d="M870 543q-4 -25 -8 -51.5t-20 -28.5q-57 2 -172 -4q-78 -6 -234 -25q-59 -2 -317 -51q-18 -4 -35 14q-39 47 -10 127q4 10 6 21q4 4 14 6q145 29 293 57q115 18 297 19q18 0 52 5t50 5q43 0 69.5 -20.5t14.5 -73.5z" />
<glyph unicode="&#x2011;" horiz-adv-x="937" d="M870 543q-4 -25 -8 -51.5t-20 -28.5q-57 2 -172 -4q-78 -6 -234 -25q-59 -2 -317 -51q-18 -4 -35 14q-39 47 -10 127q4 10 6 21q4 4 14 6q145 29 293 57q115 18 297 19q18 0 52 5t50 5q43 0 69.5 -20.5t14.5 -73.5z" />
<glyph unicode="&#x2012;" horiz-adv-x="937" d="M870 543q-4 -25 -8 -51.5t-20 -28.5q-57 2 -172 -4q-78 -6 -234 -25q-59 -2 -317 -51q-18 -4 -35 14q-39 47 -10 127q4 10 6 21q4 4 14 6q145 29 293 57q115 18 297 19q18 0 52 5t50 5q43 0 69.5 -20.5t14.5 -73.5z" />
<glyph unicode="&#x2013;" horiz-adv-x="937" d="M870 543q-4 -25 -8 -51.5t-20 -28.5q-57 2 -172 -4q-78 -6 -234 -25q-59 -2 -317 -51q-18 -4 -35 14q-39 47 -10 127q4 10 6 21q4 4 14 6q145 29 293 57q115 18 297 19q18 0 52 5t50 5q43 0 69.5 -20.5t14.5 -73.5z" />
<glyph unicode="&#x2014;" horiz-adv-x="937" d="M870 543q-4 -25 -8 -51.5t-20 -28.5q-57 2 -172 -4q-78 -6 -234 -25q-59 -2 -317 -51q-18 -4 -35 14q-39 47 -10 127q4 10 6 21q4 4 14 6q145 29 293 57q115 18 297 19q18 0 52 5t50 5q43 0 69.5 -20.5t14.5 -73.5z" />
<glyph unicode="&#x2018;" horiz-adv-x="483" d="M395 1292q-12 -57 -84 -270q-53 -166 -63 -283q-4 -45 -82 -37q-35 4 -47 9q-23 8 -29 28q-10 39 -10 78q0 72 43 182q61 158 70 191q49 180 139 180q16 0 33 -6q42 -15 30 -72z" />
<glyph unicode="&#x2019;" horiz-adv-x="483" d="M395 1327q10 -39 11 -78q0 -72 -44 -182q-61 -158 -69 -190q-49 -180 -139 -181q-16 0 -33 6q-43 14 -31 72q12 57 84 270q53 166 64 283q4 45 81 37q35 -4 48 -8q22 -9 28 -29z" />
<glyph unicode="&#x201a;" horiz-adv-x="483" d="M395 1327q10 -39 11 -78q0 -72 -44 -182q-61 -158 -69 -190q-49 -180 -139 -181q-16 0 -33 6q-43 14 -31 72q12 57 84 270q53 166 64 283q4 45 81 37q35 -4 48 -8q22 -9 28 -29z" />
<glyph unicode="&#x201c;" horiz-adv-x="849" d="M741 1292q-12 -57 -84 -270q-53 -166 -63 -283q-4 -45 -80 -37q-35 4 -47 9q-25 8 -31 28q-10 39 -10 78q0 72 43 182q61 158 70 191q49 180 139 180q16 0 33 -6q42 -15 30 -72zM395 1292q-12 -57 -84 -270q-53 -166 -63 -283q-4 -45 -82 -37q-35 4 -47 9q-23 8 -29 28 q-10 39 -10 78q0 72 43 182q61 158 70 191q49 180 139 180q16 0 33 -6q42 -15 30 -72z" />
<glyph unicode="&#x201d;" horiz-adv-x="849" d="M741 1327q10 -39 11 -78q0 -74 -41 -182q-61 -160 -70 -190q-49 -180 -141 -181q-16 0 -33 6q-43 14 -31 72q12 57 84 270q53 166 64 283q4 45 82 37q35 -4 47 -8q22 -9 28 -29zM395 1327q10 -39 11 -78q0 -72 -44 -182q-61 -158 -69 -190q-49 -180 -139 -181 q-16 0 -33 6q-43 14 -31 72q12 57 84 270q53 166 64 283q4 45 81 37q35 -4 48 -8q22 -9 28 -29z" />
<glyph unicode="&#x201e;" horiz-adv-x="849" d="M741 1327q10 -39 11 -78q0 -74 -41 -182q-61 -160 -70 -190q-49 -180 -141 -181q-16 0 -33 6q-43 14 -31 72q12 57 84 270q53 166 64 283q4 45 82 37q35 -4 47 -8q22 -9 28 -29zM395 1327q10 -39 11 -78q0 -72 -44 -182q-61 -158 -69 -190q-49 -180 -139 -181 q-16 0 -33 6q-43 14 -31 72q12 57 84 270q53 166 64 283q4 45 81 37q35 -4 48 -8q22 -9 28 -29z" />
<glyph unicode="&#x2022;" horiz-adv-x="540" d="M477 582q16 -61 17 -103q0 -63 -37 -100q-47 -47 -142 -41q-164 10 -225 192q-4 14 -4 29q0 49 42 94t85 41q145 -10 156 -14q88 -20 108 -98z" />
<glyph unicode="&#x2026;" horiz-adv-x="1327" d="M1108 180q18 -74 -7.5 -99.5t-72.5 -21.5q-41 2 -78 37t-37 74q0 25 20.5 46.5t43.5 19.5q78 -6 78 -7q43 -10 53 -49zM743 180q18 -74 -7 -99.5t-72 -21.5q-41 2 -78 37t-37 74q0 25 20.5 46.5t42.5 19.5q78 -6 78 -7q43 -10 53 -49zM414 180q18 -74 -7.5 -99.5 t-74.5 -21.5q-41 2 -78 37t-37 74q0 25 20.5 46.5t43.5 19.5q39 -2 77 -7q46 -10 56 -49z" />
<glyph unicode="&#x202f;" horiz-adv-x="310" />
<glyph unicode="&#x2039;" />
<glyph unicode="&#x203a;" />
<glyph unicode="&#x205f;" horiz-adv-x="388" />
<glyph unicode="&#x2122;" />
<glyph unicode="&#x25fc;" horiz-adv-x="1269" d="M0 1270h1270v-1270h-1270v1270z" />
</font>
</defs>
</svg>
